<svg xmlns="http://www.w3.org/2000/svg" width="60" height="60" viewBox="0 0 60 60">
  <g fill="none" fill-rule="evenodd">
    <rect width="60" height="60" fill="#C3CCD5"/>
    <path fill="#E3E8ED" d="M38.2410714,36 C40.7053695,36 42.9985013,36.6923008 45.1205357,38.0769231 C47.2425701,39.4615454 48.9196367,41.3461419 50.1517857,43.7307692 C51.3839347,46.1153965 52,48.6922938 52,51.4615385 L52,54.4615385 C52,56.0000077 51.5208381,57.3076869 50.5625,58.3846154 C49.6041619,59.4615438 48.440483,60 47.0714286,60 L10.9285714,60 C9.55951696,60 8.39583813,59.4615438 7.4375,58.3846154 C6.47916187,57.3076869 6,56.0000077 6,54.4615385 L6,51.4615385 C6,48.6922938 6.61606527,46.1153965 7.84821429,43.7307692 C9.0803633,41.3461419 10.7574299,39.4615454 12.8794643,38.0769231 C15.0014987,36.6923008 17.2946305,36 19.7589286,36 C20.648814,36 21.8124928,36.2692281 23.25,36.8076923 C24.2083381,37.1153862 24.9955326,37.3461531 25.6116071,37.5 C26.638398,37.7307704 27.767851,37.8461538 29,37.8461538 C30.232149,37.8461538 31.361602,37.7307704 32.3883929,37.5 C33.0044674,37.3461531 33.7916619,37.1153862 34.75,36.8076923 C36.1875072,36.2692281 37.351186,36 38.2410714,36 Z M29.5,33 C27.0624878,33 24.8125103,32.3906311 22.75,31.171875 C20.6874897,29.9531189 19.0468811,28.3125103 17.828125,26.25 C16.6093689,24.1874897 16,21.9375122 16,19.5 C16,17.0624878 16.6093689,14.8125103 17.828125,12.75 C19.0468811,10.6874897 20.6874897,9.04688109 22.75,7.828125 C24.8125103,6.60936891 27.0624878,6 29.5,6 C31.9375122,6 34.1874897,6.60936891 36.25,7.828125 C38.3125103,9.04688109 39.9531189,10.6874897 41.171875,12.75 C42.3906311,14.8125103 43,17.0624878 43,19.5 C43,21.9375122 42.3906311,24.1874897 41.171875,26.25 C39.9531189,28.3125103 38.3125103,29.9531189 36.25,31.171875 C34.1874897,32.3906311 31.9375122,33 29.5,33 Z"/>
  </g>
</svg>
