<svg xmlns="http://www.w3.org/2000/svg" width="60" height="44" viewBox="0 0 60 44">
  <g fill="none">
    <path fill="#FF4F19" d="M57.0967742,5.78125 L2.90322581,5.78125 C1.30233871,5.78125 0,7.08063201 0,8.67788462 L0,40.5408654 C0,42.138118 1.30233871,43.4375 2.90322581,43.4375 L57.0967742,43.4375 C58.6976613,43.4375 60,42.138118 60,40.5408654 L60,8.67788462 C60,7.08063201 58.6976613,5.78125 57.0967742,5.78125 Z"/>
    <rect width="5.781" height="4.844" x="27.031" y="38.594" fill="#E3001E"/>
    <path fill="#E6BE8A" d="M56.09375,35.6919643 L56.09375,38.5714286 C56.09375,39.10149 55.6610286,39.53125 55.1273148,39.53125 L4.87268519,39.53125 C4.33897135,39.53125 3.90625,39.10149 3.90625,38.5714286 L3.90625,35.6919643 L9.67840495,32.8125 L32.8728494,33.7723214 L52.2015531,32.8125 L56.09375,35.6919643 Z"/>
    <path fill="#FFEBB7" d="M5.26215856,37.0586054 C13.2037189,33.7845891 22.1849219,33.9838844 30,37.65625 L30,2.91227683 C21.9272461,-0.8812101 12.6103277,-0.968673227 4.4801917,2.64976681 C4.13034216,2.8055115 3.90625,3.15910381 3.90625,3.54164943 L3.90625,36.1762533 C3.90625,36.8734249 4.61694227,37.324614 5.26215856,37.0586054 Z"/>
    <path fill="#FFD788" d="M30,37.65625 C37.8150781,33.9837638 46.7962811,33.7845891 54.7378414,37.0586054 C55.3830577,37.324614 56.09375,36.8734249 56.09375,36.1762533 L56.09375,3.54164943 C56.09375,3.15910381 55.8696578,2.8055115 55.5198083,2.64976681 C47.3896723,-0.968673227 38.0726331,-0.8812101 30,2.91227683 L30,37.65625 Z"/>
    <path fill="#868491" d="M33.9376016 31.40625C33.5251657 31.40625 33.1428814 31.1452657 33.013314 30.7376864 32.8534738 30.2349218 33.1371901 29.6991167 33.6471043 29.5411902 34.6272149 29.2378615 35.6356608 28.9787856 36.6450754 28.770523 37.1673409 28.6624555 37.6819777 28.9917872 37.7916862 29.5086268 37.9013946 30.0243929 37.566578 30.5300202 37.042375 30.6380877 36.0944746 30.833826 35.147543 31.0775147 34.2279779 31.3621165 34.1314683 31.3918171 34.0331424 31.40625 33.9376016 31.40625zM52.3101173 31.25C52.214356 31.25 52.1156819 31.2356486 52.019071 31.2059971 48.3552614 30.0816091 44.5575802 29.6604381 40.7353821 29.9579027 40.1929776 29.9958567 39.733105 29.6090815 39.690504 29.0868579 39.6487525 28.5642784 40.0470903 28.1074069 40.5818485 28.065776 44.6609878 27.7525367 48.7004389 28.1982593 52.601285 29.3954715 53.112376 29.5525063 53.3968683 30.0852859 53.2365379 30.5852116 53.1065502 30.990608 52.7235051 31.25 52.3101173 31.25zM52.3138278 27.34375C52.2184324 27.34375 52.1201352 27.3294259 52.0238934 27.2998307 46.2015094 25.5093208 40.0484455 25.5093208 34.2260615 27.2998307 33.7141424 27.4565669 33.1718758 27.1787271 33.0132462 26.6802255 32.8536493 26.1812503 33.1369337 25.6494837 33.6460719 25.4927475 39.848224 23.5857508 46.4017309 23.5857508 52.603883 25.4927475 53.1130212 25.6494837 53.3964265 26.1812503 53.2367088 26.6802255 53.1072177 27.0848511 52.7256361 27.34375 52.3138278 27.34375zM33.9424197 23.59375C33.5279327 23.59375 33.1437473 23.33417 33.0135356 22.9287839 32.8529006 22.4287246 33.1380277 21.8958026 33.6504778 21.7387259 37.2337338 20.6422733 40.9520693 20.1755513 44.6979075 20.3471019 45.2340877 20.3721345 45.6495483 20.8165526 45.623871 21.3402208 45.5991673 21.8648381 45.1503628 22.2652414 44.6046905 22.243412 41.089826 22.0817084 37.5978399 22.5200759 34.2341183 23.5498539 34.1372505 23.5793948 34.0384357 23.59375 33.9424197 23.59375zM52.3176051 23.59375C52.2225941 23.59375 52.124693 23.5794623 52.028839 23.5499422 50.8115175 23.1749191 49.5555412 22.8741686 48.295832 22.6565465 47.771766 22.5656247 47.4218267 22.0758276 47.5150314 21.561942 47.6072728 21.0485288 48.1077366 20.7049151 48.6308393 20.7958369 49.9724338 21.0278648 51.3092116 21.3479805 52.6066121 21.7474462 53.113699 21.9037845 53.3959625 22.4342013 53.2368882 22.9319098 53.1077984 23.3355084 52.7277542 23.59375 52.3176051 23.59375zM52.3138278 19.6875C52.2184324 19.6875 52.1201352 19.6731759 52.0238934 19.6435807 46.2015094 17.8530708 40.0484455 17.8530708 34.2260615 19.6435807 33.7141424 19.7993699 33.1718758 19.5220036 33.0132462 19.0239755 32.8536493 18.5250003 33.1369337 17.9932337 33.6460719 17.8364975 39.848224 15.9295008 46.4017309 15.9295008 52.603883 17.8364975 53.1130212 17.9932337 53.3964265 18.5250003 53.2367088 19.0239755 53.1072177 19.4286011 52.7256361 19.6875 52.3138278 19.6875zM33.9452858 15.78125C33.5295787 15.78125 33.1442624 15.5194389 33.0136674 15.1105685 32.8525596 14.6062112 33.138526 14.0687087 33.6524845 13.9102818 35.6167798 13.305412 37.6496681 12.8857724 39.6968363 12.663209 40.2403313 12.5991922 40.7162097 12.9843704 40.7752826 13.5087105 40.8343555 14.0341276 40.4481848 14.5076132 39.9123791 14.5655275 37.9910459 14.7749285 36.0810634 15.1689614 34.2379651 15.736857 34.1406901 15.7666518 34.0415844 15.78125 33.9452858 15.78125zM52.3151114 15.78125C52.2198426 15.78125 52.1216758 15.7668865 52.0255618 15.7372098 49.298386 14.89463 46.4665231 14.4448504 43.6072509 14.4008102 43.0733108 14.3925008 42.6479216 13.9607647 42.6563738 13.4363186 42.664826 12.9123474 43.1309067 12.4708774 43.6374374 12.5015037 46.6825382 12.5487489 49.7002296 13.027849 52.6047818 13.925034 53.1132444 14.0822016 53.3962737 14.6154319 53.2367679 15.1157805 53.1064826 15.5215198 52.7263733 15.78125 52.3151114 15.78125zM33.9376066 12.03125C33.5251685 12.03125 33.1428822 11.7719005 33.0133142 11.3668745 32.8534733 10.8672593 33.1371909 10.3348106 33.6471078 10.1778734 37.8682408 8.88005931 42.2369846 8.46329849 46.6379387 8.94252602 47.169652 8.99989583 47.5527859 9.46892955 47.4940565 9.98940645 47.4354482 10.5094092 46.9662181 10.8946404 46.4240909 10.8269582 42.2955929 10.3787862 38.1908289 10.768166 34.2278632 11.9872744 34.1314743 12.0169075 34.0331479 12.03125 33.9376066 12.03125zM52.3046396 12.03125C52.2083382 12.03125 52.1091074 12.0164658 52.0119516 11.9859199 51.3921561 11.7906706 50.7561273 11.6136266 50.1200985 11.4585757 49.5966044 11.3306495 49.2752334 10.8018391 49.4030251 10.2773051 49.5308167 9.75277106 50.0552872 9.43203922 50.5835414 9.55898794 51.2596043 9.72418011 51.9366436 9.91307588 52.5974496 10.1207879 53.1114234 10.282559 53.3975204 10.8314075 53.2362857 11.3464112 53.1055648 11.7640346 52.7203591 12.03125 52.3046396 12.03125zM33.94558 8.125C33.5297449 8.125 33.1443099 7.85729101 33.0136747 7.4396601 32.8525172 6.92415841 33.1385717 6.37578874 33.6536652 6.21450354 34.3251547 6.00348875 35.0023824 5.81495613 35.667157 5.65318219 36.1879887 5.52476496 36.7191979 5.84745754 36.8470251 6.37200098 36.9748523 6.89654442 36.6524152 7.42536437 36.1287755 7.55280411 35.5050228 7.70455882 34.868817 7.88160598 34.2373727 8.07966909 34.1400678 8.11009334 34.0419082 8.125 33.94558 8.125zM52.3124708 8.125C52.2169297 8.125 52.1184823 8.11065755 52.0220935 8.08102438 48.0582862 6.86191601 43.9553449 6.47301036 39.8258845 6.9207082 39.2904181 6.98459731 38.8145287 6.60256655 38.7559205 6.08315645 38.6973122 5.56267955 39.0804456 5.09364583 39.612037 5.03627602 44.0110469 4.55704849 48.3807528 4.97380931 52.6028481 6.27162337 53.1127642 6.42856061 53.3966025 6.96100931 53.2366407 7.46062446 53.1070729 7.86565055 52.7249083 8.125 52.3124708 8.125z"/>
    <path fill="#B4B6BC" d="M7.84385163 31.40625C7.43141566 31.40625 7.04925244 31.1452657 6.91956397 30.7376864 6.75972385 30.2349218 7.04344007 29.6991167 7.5533543 29.5411902 8.53346491 29.2378615 9.54191081 28.9787856 10.5513254 28.770523 11.0744386 28.6624555 11.5882277 28.9917872 11.6979362 29.5086268 11.8076446 30.0243929 11.472828 30.5300202 10.948625 30.6380877 10.0007246 30.833826 9.05379296 31.0775147 8.13422786 31.3621165 8.03771833 31.3918171 7.93939243 31.40625 7.84385163 31.40625zM26.2163673 31.25C26.120606 31.25 26.0219319 31.2356486 25.925321 31.2059971 22.262361 30.0816091 18.4638302 29.6604381 14.6416321 29.9579027 14.0917026 29.9958567 13.639355 29.6090815 13.596754 29.0868579 13.5550025 28.5642784 13.9533403 28.1074069 14.4880985 28.065776 18.5672378 27.7525367 22.605718 28.1982593 26.507535 29.3954715 27.018626 29.5525063 27.3031183 30.0852859 27.1427879 30.5852116 27.0128002 30.990608 26.6297551 31.25 26.2163673 31.25zM26.2200778 27.34375C26.1246824 27.34375 26.0263852 27.3294259 25.9301434 27.2998307 20.1077594 25.5093208 13.9546955 25.5093208 8.13231147 27.2998307 7.6184579 27.4565669 7.07812577 27.1787271 6.91949615 26.6802255 6.75989928 26.1812503 7.04318373 25.6494837 7.55232193 25.4927475 13.754474 23.5857508 20.3079809 23.5857508 26.510133 25.4927475 27.0192712 25.6494837 27.3026765 26.1812503 27.1429588 26.6802255 27.0134677 27.0848511 26.6318861 27.34375 26.2200778 27.34375zM7.84866973 23.59375C7.43418272 23.59375 7.050119 23.33417 6.91978559 22.9287839 6.75915058 22.4287246 7.04427773 21.8958026 7.55672776 21.7387259 11.1399838 20.6422733 14.8611183 20.1755513 18.6041575 20.3471019 19.1403377 20.3721345 19.5557983 20.8165526 19.530121 21.3402208 19.5044438 21.8648381 19.0508932 22.2652414 18.5109405 22.243412 14.9951025 22.0817084 11.5040899 22.5200759 8.14036832 23.5498539 8.04350054 23.5793948 7.94468566 23.59375 7.84866973 23.59375zM26.0676051 23.59375C25.9725941 23.59375 25.874693 23.5794623 25.778839 23.5499422 24.5615175 23.1749191 23.3055412 22.8741686 22.045832 22.6565465 21.521766 22.5656247 21.1718267 22.0758276 21.2650314 21.561942 21.3563095 21.0485288 21.8587 20.7049151 22.3808393 20.7958369 23.7224338 21.0278648 25.0592116 21.3479805 26.3566121 21.7474462 26.863699 21.9037845 27.1459625 22.4342013 26.9868882 22.9319098 26.8577984 23.3355084 26.4777542 23.59375 26.0676051 23.59375zM7.84549551 19.6875C7.43235975 19.6875 7.0495481 19.4278906 6.91963959 19.0224587 6.75952825 18.5223428 7.04372587 17.9893605 7.55450529 17.832266 13.0707047 16.1382794 18.9563731 15.9496236 24.5710652 17.2871813 25.0922761 17.4114094 25.4116497 17.9249328 25.2846523 18.4343035 25.1576549 18.9431995 24.6298939 19.2532357 24.1124432 19.1318553 18.8398072 17.8743873 13.315117 18.0528391 8.13636443 19.643599 8.03969115 19.6731432 7.94119842 19.6875 7.84549551 19.6875zM7.85153582 15.78125C7.43582872 15.78125 7.05063448 15.5194389 6.91991742 15.1105685 6.75880956 14.6062112 7.04477601 14.0687087 7.55873449 13.9102818 9.52302984 13.305412 11.5559181 12.8857724 13.6030863 12.663209 14.1418213 12.5991922 14.6224597 12.9843704 14.6815326 13.5087105 14.7406055 14.0341276 14.3544348 14.5076132 13.8186291 14.5655275 11.8972959 14.7749285 9.9873134 15.1689614 8.14421509 15.736857 8.04694012 15.7666518 7.94783438 15.78125 7.85153582 15.78125zM24.1845187 15.3125C24.1085602 15.3125 24.0306573 15.3035232 23.9538481 15.2849629 21.798573 14.7609097 19.5805866 14.4770475 17.3634509 14.4424746 16.8260298 14.433983 16.3978673 13.9927835 16.4063746 13.456842 16.414882 12.9213858 16.8345371 12.470239 17.3938343 12.5015366 19.756081 12.539021 22.1174769 12.8408369 24.4133663 13.3989778 24.9355957 13.5259879 25.2555934 14.0510117 25.1283478 14.5717896 25.01994 15.0154152 24.6221608 15.3125 24.1845187 15.3125zM7.8438566 12.03125C7.43141851 12.03125 7.04925334 11.7719005 6.9195642 11.3668745 6.75972325 10.8672593 7.04344094 10.3348106 7.55335778 10.1778734 11.7754596 8.88005931 16.1442033 8.46329849 20.5441887 8.94252602 21.075902 8.99989583 21.4590359 9.46892955 21.4003065 9.98940645 21.3416982 10.5094092 20.8685932 10.8946404 20.3303409 10.8269582 16.2018429 10.3787862 12.0970789 10.768166 8.13411323 11.9872744 8.03772429 12.0169075 7.93939789 12.03125 7.8438566 12.03125zM7.85183001 8.125C7.43599487 8.125 7.05068199 7.85729101 6.91992467 7.4396601 6.75876719 6.92415841 7.04482172 6.37578874 7.55991521 6.21450354 8.23140471 6.00348875 8.90863239 5.81495613 9.57340699 5.65318219 10.093262 5.52476496 10.6254479 5.84745754 10.7532751 6.37200098 10.8811023 6.89654442 10.5586652 7.42536437 10.0350255 7.55280411 9.4112728 7.70455882 8.77506702 7.88160598 8.14362272 8.07966909 8.04631778 8.11009334 7.94815823 8.125 7.85183001 8.125zM24.3396433 7.65625C24.2635874 7.65625 24.1855844 7.64728281 24.1086767 7.62874255 20.7061173 6.80364025 17.2170367 6.58164181 13.7374479 6.96553431 13.2031094 7.03084936 12.7210974 6.64126148 12.6621997 6.10928922 12.603302 5.57719578 12.9883275 5.09769368 13.5225443 5.03904344 17.2273803 4.6281282 20.9456022 4.86672805 24.5686629 5.74478522 25.0915625 5.87165879 25.4119709 6.396118 25.284562 6.91633597 25.1761367 7.35936343 24.7778471 7.65625 24.3396433 7.65625z"/>
    <path fill="#5D647F" d="M24.2213986,17.9518785 C24.2215189,18.3390153 24.6500986,18.5700368 24.9700886,18.3552571 L27.1106993,16.9184633 L29.25131,18.3552571 C29.5713,18.5700368 30,18.3391365 30,17.9518785 L30,3.0033565 C30,2.62034077 29.7781258,2.26677847 29.4304466,2.11114803 C27.9307791,1.43965844 26.389578,0.901133477 24.8241789,0.484785687 C24.5187558,0.403576656 24.2186296,0.641385787 24.21875,0.959434289 L24.2213986,17.9518785 Z"/>
  </g>
</svg>
