<svg xmlns="http://www.w3.org/2000/svg" width="60" height="60" viewBox="0 0 60 60">
  <g fill="none">
    <g transform="translate(16.552 1.034)">
      <path fill="#D45B5B" d="M8.15550398 25.2642599C8.24850259 25.3443773 8.34361481 25.4153384 8.43661342 25.4908776 8.41970459 25.4771432 8.40385255 25.4611198 8.38694371 25.4473853 8.31085394 25.3855805 8.23159375 25.3306429 8.15550398 25.2642599zM5.26781801 23.6337971C5.23858263 23.6109064 5.20934725 23.5903048 5.18236074 23.5674141 5.21159613 23.5903048 5.23858263 23.6131955 5.26781801 23.6337971zM6.35501961 24.3641084C6.27406009 24.3137489 6.19310057 24.2656785 6.11438992 24.215319 6.19310057 24.2656785 6.27406009 24.3137489 6.35501961 24.3641084zM19.8828711 24.215319C19.8019115 24.2656785 19.720952 24.3137489 19.6422414 24.3641084 19.720952 24.3137489 19.8019115 24.2656785 19.8828711 24.215319zM20.7273671 23.5684218C20.6981317 23.5913124 20.6711452 23.6119141 20.6419098 23.6348047 20.6711452 23.6119141 20.6981317 23.5890234 20.7273671 23.5684218zM7.38422616 25.0082238C7.29052301 24.9326845 7.19681986 24.8594343 7.10311671 24.781606 7.19681986 24.8617234 7.29188102 24.9326845 7.38422616 25.0082238zM18.8331651 24.781606C18.74082 24.8617234 18.6457589 24.9326845 18.5520557 25.0082238 18.6457589 24.9326845 18.74082 24.8617234 18.8331651 24.781606zM14.1057692 26.1534369C14.1777332 26.1465697 14.2519461 26.1419916 14.3239102 26.1328353 14.2879282 26.1374135 14.2496973 26.1351244 14.2137153 26.1397025 14.1777332 26.1419916 14.1417512 26.1511479 14.1057692 26.1534369zM16.3637268 25.8027276C16.457026 25.7546572 16.551537 25.7088758 16.6448362 25.6562272 16.5866757 25.6882742 16.5260917 25.7111649 16.4679312 25.7432118 16.4327925 25.7615244 16.3988655 25.784415 16.3637268 25.8027276zM17.4409814 25.4908776C17.5350368 25.4153384 17.6301491 25.3443773 17.7220909 25.2642599 17.6460011 25.3306429 17.5667409 25.3855805 17.4895943 25.4473853 17.4747991 25.4634088 17.4578903 25.4794323 17.4409814 25.4908776zM15.2506631 26.0226972C15.3448987 25.9975174 15.437537 25.9769158 15.5317726 25.949447 15.4806618 25.9631814 15.4279537 25.9700486 15.3784402 25.983783 15.3353154 25.9952284 15.2937879 26.0112518 15.2506631 26.0226972zM11.6598143 26.1328353C11.7317783 26.1397025 11.8059912 26.1465697 11.8779553 26.1534369 11.8419732 26.1511479 11.8059912 26.1419916 11.7700092 26.1397025 11.7340272 26.1351244 11.6957963 26.1374135 11.6598143 26.1328353zM9.26757294 25.6562272C9.3608722 25.7088758 9.45538313 25.7546572 9.54868239 25.8027276 9.51354371 25.784415 9.47961671 25.7615244 9.44447803 25.7432118 9.38510577 25.7111649 9.32573352 25.6905632 9.26757294 25.6562272zM10.4363395 25.949447C10.5289779 25.9769158 10.6232134 25.9975174 10.717449 26.0226972 10.6743242 26.0112518 10.6327967 25.9952284 10.5896719 25.983783 10.5385611 25.9700486 10.4874503 25.9631814 10.4363395 25.949447zM14.589191 26.2014417C14.811008 26.1350587 15.0328249 26.0732538 15.2506631 25.9816911 15.0795756 26.0549413 14.9035146 26.0961445 14.729443 26.1533712 14.6826923 26.1671056 14.6369363 26.1877072 14.589191 26.2014417zM9.41279841 25.6945171C9.44164456 25.7128296 9.46949602 25.7357203 9.49834218 25.7540329 9.58090186 25.8066814 9.66644562 25.8433065 9.75 25.893666 9.63759947 25.827283 9.52420424 25.7677673 9.41279841 25.6945171zM14.7304377 26.1751557C14.9045093 26.117929 15.0795756 26.0767258 15.2516578 26.0034756 15.2785146 25.9920302 15.3043767 25.9760068 15.3312334 25.9645614 15.1322944 26.049257 14.9303714 26.1110618 14.7304377 26.1751557z"/>
      <path fill="#D45B5B" d="M10.6114058 25.9816911C10.829244 26.0732538 11.051061 26.1373477 11.272878 26.2014417 11.2261273 26.1877072 11.1793767 26.1671056 11.132626 26.1510822 10.9585544 26.0961445 10.7824934 26.0526522 10.6114058 25.9816911zM16.112069 25.893666C16.1956233 25.8455956 16.2811671 25.8066814 16.3637268 25.7540329 16.3925729 25.7357203 16.4204244 25.7128296 16.4492706 25.6945171 16.3378647 25.7677673 16.2244695 25.827283 16.112069 25.893666zM12.9310345 26.2777804C13.3279178 26.2777804 13.7188329 26.22971 14.1057692 26.1495926 14.1216844 26.1473035 14.1375995 26.1381473 14.1535146 26.1358582 13.7506631 26.2228428 13.3438329 26.2777804 12.9310345 26.2777804zM15.8683687 26.0045599C16.0344828 25.9152862 16.1996021 25.8260126 16.3637268 25.7207154 16.2811671 25.773364 16.1956233 25.8099891 16.112069 25.8603486 16.030504 25.908419 15.9509284 25.9610676 15.8683687 26.0045599zM9.49834218 25.7207154C9.66147215 25.8260126 9.82758621 25.9152862 9.99370027 26.0045599 9.91213528 25.9610676 9.83156499 25.908419 9.75 25.8603486 9.66644562 25.8122782 9.58090186 25.773364 9.49834218 25.7207154zM17.377321 25.4387219C17.4245473 25.4204094 17.4740226 25.406675 17.521249 25.3883624 17.557231 25.374628 17.5909641 25.3586045 17.6269461 25.3448701 17.5437377 25.3792062 17.4605294 25.408964 17.377321 25.4387219zM7.80398743 25.1761472C7.70811773 25.1166314 7.61712277 25.0456703 7.52287798 24.9861545 7.61712277 25.0479594 7.70811773 25.1166314 7.80398743 25.1761472zM17.0520557 25.6501486C17.1833554 25.5594725 17.3126658 25.4627513 17.4409814 25.3640151 17.4200928 25.3801353 17.3982095 25.3922254 17.377321 25.4083456 17.2688992 25.4889466 17.1614721 25.5755927 17.0520557 25.6501486zM11.7562997 26.1495926C12.1432361 26.22971 12.5341512 26.2777804 12.9310345 26.2777804 12.5182361 26.2777804 12.1114058 26.2228428 11.7085544 26.1358582 11.7244695 26.1381473 11.7403846 26.1473035 11.7562997 26.1495926zM18.4492129 24.9861545C18.3549681 25.0479594 18.2623482 25.1166314 18.1681034 25.1761472 18.2623482 25.1166314 18.3533432 25.0479594 18.4492129 24.9861545zM10.5318302 25.9645614C10.558687 25.9760068 10.5845491 25.9920302 10.6114058 26.0034756 10.7824934 26.0767258 10.9585544 26.117929 11.132626 26.1751557 10.9316976 26.1110618 10.7297745 26.049257 10.5318302 25.9645614zM8.42108753 25.3640151C8.55039788 25.4627513 8.67970822 25.5594725 8.81001326 25.6501486 8.70059682 25.5755927 8.59316976 25.4889466 8.48474801 25.4083456 8.46385942 25.3942404 8.44197613 25.3801353 8.42108753 25.3640151z"/>
      <path fill="#D45B5B" d="M14.1057692 26.141904C13.7188329 26.2220214 13.3279178 26.2700918 12.9310345 26.2700918 13.3279178 26.2700918 13.7188329 26.2220214 14.1057692 26.141904zM8.37433687 25.3458778C8.41031888 25.3596122 8.44405201 25.3756356 8.48003402 25.3893701 8.52726041 25.4076826 8.57673567 25.421417 8.62396206 25.4397296 8.54075366 25.4076826 8.45754527 25.3779247 8.37433687 25.3458778zM12.9310345 26.2700918C12.5341512 26.2700918 12.1432361 26.2220214 11.7562997 26.141904 12.1432361 26.2220214 12.5341512 26.2700918 12.9310345 26.2700918zM7.99038462 25.1896954C8.04608753 25.2324296 8.09880637 25.2844539 8.15550398 25.3271881 8.22712202 25.3810704 8.30172414 25.4256627 8.37433687 25.4758289 8.24502653 25.3847864 8.11770557 25.2881699 7.99038462 25.1896954zM17.4877321 25.4768366C17.5603448 25.4266703 17.6339523 25.38022 17.706565 25.3281958 17.7622679 25.2854615 17.8159814 25.2334373 17.8716844 25.190703 17.7443634 25.2873195 17.6170424 25.3839361 17.4877321 25.4768366zM17.706565 25.3559212C17.8617374 25.2640026 18.0159151 25.1706015 18.1671088 25.0697877 18.0706233 25.1335376 17.9691645 25.1854271 17.8706897 25.246212 17.8159814 25.2817933 17.7622679 25.3233049 17.706565 25.3559212zM11.3743369 26.0915226C11.4698276 26.1189914 11.5633289 26.1624837 11.6598143 26.1853744 11.6757294 26.1899525 11.6926393 26.1876634 11.7085544 26.1922416 11.5961538 26.1670618 11.4857427 26.1235695 11.3743369 26.0915226zM7.69496021 25.0697877C7.84714854 25.1706015 8.00132626 25.2640026 8.15550398 25.3559212 8.09980106 25.3218224 8.04608753 25.2803108 7.99038462 25.246212 7.89290451 25.1854271 7.79144562 25.1350202 7.69496021 25.0697877zM4.9734748 23.4102241L4.9734748 23.3951097C4.74767905 23.2157519 4.52188329 23.0363941 4.30802387 22.8419219 4.58852785 23.0968518 4.87997347 23.3386825 5.18136605 23.5684218 5.16147215 23.5533073 5.14456233 23.5361777 5.12466844 23.5210632 5.07592838 23.4827734 5.02221485 23.448514 4.9734748 23.4102241zM16.594496 25.7932318C16.7486737 25.7042984 16.8998674 25.6056983 17.0520557 25.5070983 16.9724801 25.5592983 16.8899204 25.6018317 16.8093501 25.6520984 16.7367374 25.6965651 16.6671088 25.7526318 16.594496 25.7932318zM8.81001326 25.5070983C8.96220159 25.6056983 9.11339523 25.7062317 9.26757294 25.7932318 9.19496021 25.7506984 9.12533156 25.6965651 9.05371353 25.6520984 8.97214854 25.6018317 8.88958886 25.5592983 8.81001326 25.5070983z"/>
      <path fill="#4CB648" d="M12.9310345,0 C5.78912467,0 0,5.86439567 0,13.0991656 C0,16.9724881 1.67009284,20.4427593 4.30802387,22.8419219 C4.52188329,23.0363941 4.74767905,23.2157519 4.9734748,23.3951097 L4.9734748,20.4578737 C4.9734748,19.0078969 5.68866048,17.6546523 6.87931034,16.8505651 C7.58255968,16.3749646 8.4081565,16.1220499 9.25364721,16.1220499 L12.9310345,16.1220499 C10.8212865,16.1220499 6.96286472,13.4155608 6.96286472,10.0762812 C6.96286472,6.73700162 7.95755968,3.02288436 12.9310345,3.02288436 C17.9045093,3.02288436 18.8992042,6.73700162 18.8992042,10.0762812 C18.8992042,13.4155608 15.0407825,16.1220499 12.9310345,16.1220499 L16.6084218,16.1220499 C17.4529178,16.1220499 18.2795093,16.3749646 18.9827586,16.8505651 C20.1734085,17.6546523 20.8885942,19.0078969 20.8885942,20.4578737 L20.8885942,23.3951097 C21.1143899,23.2157519 21.3401857,23.0363941 21.5540451,22.8419219 C24.1919761,20.4427593 25.862069,16.9724881 25.862069,13.0991656 C25.862069,9.73872579 24.6017905,6.68359733 22.5487401,4.36403739 C20.1803714,1.69180762 16.7546419,0 12.9310345,0 Z"/>
      <path fill="#D45B5B" d="M20.8885942 23.3941021L20.8885942 23.4092165C20.8398541 23.448514 20.7861406 23.4817657 20.7364058 23.5200556 20.7165119 23.53517 20.6996021 23.5522997 20.6797082 23.5674141 20.9820955 23.3376749 21.2725464 23.0958442 21.5530504 22.8409143 21.3401857 23.0353865 21.1143899 23.2147443 20.8885942 23.3941021zM20.4628647 23.8061891C20.5231755 23.7457991 20.5875751 23.6925984 20.6468636 23.6293327 20.6601524 23.6149542 20.6734413 23.6020134 20.6857078 23.5876349 20.7061522 23.566067 20.7235298 23.5416235 20.7439742 23.5200556 20.6519747 23.6192677 20.5569086 23.7112906 20.4628647 23.8061891zM19.8352122 24.1548613C19.8053714 24.1740063 19.7785146 24.1961741 19.7486737 24.215319 20.0560345 24.0218544 20.3524536 23.8152906 20.6419098 23.597643 20.5842175 23.640971 20.5215517 23.6782532 20.4628647 23.7215812 20.2569629 23.8707102 20.0500663 24.0168163 19.8352122 24.1548613zM16.4492706 25.8367569C16.4970159 25.80471 16.5467507 25.7841084 16.594496 25.7497723 16.6671088 25.6994128 16.7367374 25.6353189 16.8083554 25.5826704 16.6899867 25.669655 16.5706233 25.7566396 16.4492706 25.8367569zM18.3401857 25.1181429C18.4347646 25.0426036 18.5280298 24.9601971 18.6212951 24.8823688 18.5910824 24.9075486 18.5582425 24.9304393 18.5280298 24.955619 18.4636637 25.0059785 18.4032383 25.0654943 18.3401857 25.1181429z"/>
      <path fill="#D45B5B" d="M18.4814324 24.9982132C18.5043103 24.9824759 18.5291777 24.9695998 18.5520557 24.9524318 18.6206897 24.9052198 18.6893236 24.8594384 18.7579576 24.8107957 18.7997347 24.7807517 18.8385279 24.7435544 18.880305 24.7120797 18.7490053 24.8107957 18.6157162 24.9066505 18.4814324 24.9982132zM19.487069 24.4409949C19.5377984 24.4005043 19.5915119 24.3654124 19.6412467 24.3235721 19.6770557 24.293879 19.7128647 24.2655356 19.747679 24.2358425 19.7775199 24.2101985 19.8053714 24.1805054 19.8342175 24.1548613 19.7208223 24.2533884 19.604443 24.3465168 19.487069 24.4409949z"/>
      <path fill="#D45B5B" d="M18.880305 24.7120797C18.8385279 24.7342475 18.7997347 24.7594382 18.7579576 24.781606 19.0603448 24.6264313 19.3537798 24.4581574 19.6412467 24.2808148 19.5915119 24.3120513 19.5377984 24.3382496 19.487069 24.3684785 19.28813 24.4873786 19.0862069 24.6032558 18.880305 24.7120797zM15.4257294 26.0814353C15.5749337 26.0150524 15.7211538 25.9257787 15.8683687 25.8456613 15.8096817 25.8777083 15.75 25.9051771 15.691313 25.934935 15.6017905 25.9784273 15.515252 26.0402321 15.4257294 26.0814353zM14.2022546 26.2020331C14.3325597 26.1722752 14.4598806 26.1173376 14.589191 26.0784234 14.5553714 26.0875797 14.5215517 26.099025 14.4877321 26.1081813 14.3922414 26.1356501 14.2987401 26.1814315 14.2022546 26.2020331zM9.05271883 25.5826704C9.12533156 25.6353189 9.19396552 25.7017019 9.26657825 25.7497723 9.31432361 25.7818193 9.36405836 25.80471 9.41180371 25.8367569 9.29144562 25.7566396 9.17208223 25.669655 9.05271883 25.5826704zM14.1535146 26.1922416C14.1694297 26.1876634 14.1863395 26.1899525 14.2022546 26.1853744 14.2987401 26.1624837 14.3912467 26.1189914 14.4877321 26.0915226 14.3763263 26.1235695 14.2659151 26.1670618 14.1535146 26.1922416zM7.30901857 24.8813612C7.40228385 24.9591895 7.49554913 25.041596 7.59012801 25.1171352 7.52707543 25.0667757 7.46533644 25.0072599 7.40228385 24.9546114 7.37207115 24.9294316 7.34054486 24.90883 7.30901857 24.8813612zM9.99370027 25.8456613C10.1409151 25.9257787 10.2871353 26.0127633 10.4363395 26.0814353 10.346817 26.0402321 10.2602785 25.9807163 10.170756 25.934935 10.112069 25.9051771 10.0523873 25.8777083 9.99370027 25.8456613zM6.98176393 24.7120797C7.02354111 24.7435544 7.06233422 24.7793211 7.10411141 24.8107957 7.17175066 24.8608691 7.24137931 24.9052198 7.31001326 24.9524318 7.33289125 24.9681692 7.35775862 24.9824759 7.3806366 24.9982132 7.24635279 24.9066505 7.11306366 24.8107957 6.98176393 24.7120797z"/>
      <path fill="#D45B5B" d="M6.375 24.3684785C6.32427056 24.3382496 6.27055703 24.3120513 6.22082228 24.2808148 6.50828912 24.4581574 6.80172414 24.6264313 7.10411141 24.781606 7.06233422 24.7604458 7.02354111 24.7342475 6.98176393 24.7120797 6.77586207 24.6032558 6.57393899 24.4873786 6.375 24.3684785zM11.272878 26.0784234C11.4021883 26.1173376 11.5295093 26.1722752 11.6598143 26.2020331 11.5633289 26.1791424 11.4708223 26.1356501 11.3743369 26.1081813 11.3405172 26.099025 11.3066976 26.0898687 11.272878 26.0784234zM10.170756 25.8849588C10.2602785 25.9307402 10.346817 25.9902559 10.4363395 26.0314592 10.4681698 26.0451936 10.5009947 26.0520608 10.5318302 26.0657952 10.4104775 26.0131466 10.2911141 25.9444746 10.170756 25.8849588zM5.39920424 23.7205736C5.34051724 23.6782532 5.27785146 23.640971 5.22015915 23.5966353 5.50961538 23.8152906 5.80603448 24.0208468 6.11339523 24.2143114 6.08355438 24.1951664 6.05570292 24.1729986 6.02685676 24.1538537 5.81200265 24.0168163 5.6051061 23.8707102 5.39920424 23.7205736zM5.12566313 23.5210632C5.14610745 23.5426311 5.16348513 23.5670747 5.18392945 23.5886425 5.19721826 23.6030211 5.20948486 23.6159618 5.22277367 23.6303404 5.2820622 23.6921682 5.34646182 23.7453689 5.40677258 23.8071968 5.31272869 23.7108603 5.21766258 23.6188375 5.12566313 23.5210632zM15.3302387 26.0657952C15.362069 26.0520608 15.3948939 26.0474826 15.4257294 26.0314592 15.515252 25.9902559 15.6017905 25.9307402 15.691313 25.8849588 15.5709549 25.9444746 15.4515915 26.0131466 15.3302387 26.0657952z"/>
      <path fill="#D45B5B" d="M6.02685676 24.1548613C6.05669761 24.1805054 6.08355438 24.2101985 6.11339523 24.2358425 6.14920424 24.2655356 6.18501326 24.293879 6.21982759 24.3235721 6.26956233 24.3654124 6.32327586 24.4005043 6.37400531 24.4409949 6.25762599 24.3465168 6.14124668 24.2533884 6.02685676 24.1548613zM21.0175153 23.4291732L21.0175153 23.3951097C20.9219748 23.4882167 20.8337836 23.5904072 20.7364058 23.6812432 20.8282717 23.5926781 20.9274868 23.5154675 21.0175153 23.4291732zM11.1316313 26.0572632C11.1860023 26.0732867 11.2403732 26.0915992 11.2947442 26.1076227 11.3340764 26.116779 11.3734086 26.1282243 11.4127407 26.1373806 11.3190376 26.1144899 11.2264913 26.082443 11.1316313 26.0572632zM9.75 25.7821807C9.83156499 25.8302512 9.91114058 25.8828997 9.99370027 25.926392 10.0523873 25.958439 10.112069 25.9859078 10.170756 26.0156657 10.0295093 25.9447046 9.88925729 25.8645872 9.75 25.7821807zM20.4628647 23.7205736C20.2579576 23.8707102 20.0490716 24.0168163 19.8352122 24.1548613 20.0500663 24.0168163 20.2569629 23.8707102 20.4628647 23.7205736zM8.48474801 25.3861829C8.59316976 25.4448769 8.70059682 25.5079731 8.81001326 25.5622651 8.88958886 25.6018835 8.97214854 25.6341653 9.05271883 25.6723164 8.8617374 25.582808 8.67175066 25.4888975 8.48474801 25.3861829zM14.4877321 26.136373C14.5270643 26.1272167 14.5663965 26.1157714 14.6057287 26.1066151 14.6600996 26.0928807 14.7144706 26.0722791 14.7688415 26.0562556 14.6751384 26.0837244 14.5825921 26.1157714 14.4877321 26.136373zM6.375 24.3684785C6.57393899 24.4883862 6.77586207 24.6032558 6.98176393 24.7120797 6.77586207 24.6032558 6.57393899 24.4883862 6.375 24.3684785zM15.691313 26.0156657C15.75 25.9859078 15.8096817 25.958439 15.8683687 25.926392 15.9499337 25.8828997 16.030504 25.8302512 16.112069 25.7821807 15.9728117 25.8645872 15.8325597 25.9447046 15.691313 26.0156657zM19.487069 24.3684785C19.28813 24.4883862 19.0862069 24.6032558 18.880305 24.7120797 19.0862069 24.6032558 19.28813 24.4873786 19.487069 24.3684785z"/>
    </g>
    <path fill="#B3D5E4" d="M31.0011186,26.7868966 C31.0806494,26.7765517 31.1582405,26.7631034 31.2368014,26.7506897 C31.4327189,26.7217241 31.6286363,26.6937931 31.821644,26.6555172 C31.9399704,26.6317241 32.056357,26.6017241 32.1737134,26.5737931 C32.3114376,26.5417241 32.4481918,26.5055172 32.5839762,26.4682759 C32.6935735,26.4382759 32.8041408,26.4103448 32.9127683,26.3782759 C33.0310946,26.342069 33.1474812,26.3027586 33.2638678,26.2634483 C33.4500863,26.2003448 33.635335,26.1341379 33.8176739,26.0617241 C33.8535598,26.0472414 33.8894457,26.0337931 33.9253315,26.0193103 C34.051417,25.9686207 34.1755627,25.9148276 34.2987385,25.86 C34.4995054,25.7710345 34.6983324,25.6768966 34.8942499,25.5765517 C35.0251848,25.5093103 35.1551498,25.4410345 35.283175,25.3696552 C35.4839419,25.257931 35.6808292,25.1389655 35.8748068,25.0168966 C35.9882838,24.9444828 36.1027306,24.8731034 36.2142677,24.7975862 C36.4227937,24.6558621 36.6255003,24.5058621 36.8262672,24.3517241 C36.9154969,24.2834483 37.0056965,24.2172414 37.0929864,24.1468966 C37.1443905,24.1055172 37.1909451,24.0589655 37.2413793,24.0165517 L37.2413793,21.0010345 C37.2413793,19.5124138 36.5440297,18.1231034 35.3830735,17.2975862 C34.6983324,16.8113793 33.8933252,16.5517241 33.0689203,16.5517241 L29.4832436,16.5517241 L31.42302,21.7241379 L29.4832436,23.7931034 L27.5434672,21.7241379 L29.4832436,16.5517241 L25.8975669,16.5517241 C25.0741318,16.5517241 24.2681547,16.8113793 23.5824437,17.2996552 C22.4214875,18.1251724 21.7241379,19.5144828 21.7241379,21.0031034 L21.7241379,24.0186207 C21.7745721,24.0610345 21.8211268,24.1075862 21.8725308,24.1489655 C21.9598208,24.2193103 22.0500204,24.2855172 22.1392501,24.3537931 C22.3390471,24.507931 22.5427236,24.657931 22.7512495,24.7996552 C22.8627867,24.8751724 22.9772335,24.9465517 23.0907104,25.0189655 C23.2846881,25.142069 23.4815754,25.26 23.6823422,25.3717241 C23.8103675,25.4431034 23.9403325,25.5113793 24.0712674,25.5786207 C24.2671848,25.6789655 24.465042,25.7731034 24.6667787,25.862069 C24.7909244,25.9168966 24.9150701,25.9706897 25.0401857,26.0213793 C25.0760716,26.0358621 25.1119574,26.0493103 25.1478433,26.0637931 C25.3301823,26.1362069 25.5154309,26.2024138 25.7016495,26.2655172 C25.818036,26.3048276 25.9344226,26.3441379 26.052749,26.3803448 C26.1613765,26.4134483 26.2719437,26.4403448 26.3815411,26.4703448 C26.5173254,26.5075862 26.6540797,26.5427586 26.7918038,26.5758621 C26.9091603,26.6037931 27.0255469,26.6337931 27.1438732,26.6575862 C27.336881,26.6958621 27.5327984,26.7237931 27.7287158,26.7527586 C27.8072767,26.7641379 27.8858377,26.7786207 27.9643986,26.7889655 C28.0730261,26.8034483 28.1806837,26.8231034 28.2902811,26.8334483 C28.6840557,26.8717241 29.08074,26.8965517 29.4832436,26.8965517 C29.8857472,26.8965517 30.2824314,26.8717241 30.6752362,26.8324138 C30.7848335,26.8210345 30.8924911,26.8013793 31.0011186,26.7868966 Z"/>
    <g fill="#D45B5B" transform="translate(21.724 24.828)">
      <path d="M2.3886112 1.67259528C2.43598861 1.69874155 2.48139196 1.7282982 2.52975641 1.75330767 2.58700411 1.78400112 2.64326479 1.81810494 2.7005125 1.84766159 2.79625435 1.89654375 2.89693135 1.93633155 2.99464726 1.98294011 2.78934514 1.8863126 2.58700411 1.78286432 2.3886112 1.67259528zM.422448592.434874773C.626763682.590635209.832065802.742214156 1.04526416.885430127.833052831.742214156.625776653.590635209.422448592.434874773zM12.7988105 1.98398548C12.8965264 1.93737692 12.9962164 1.89758912 13.0929453 1.84870697 13.15118 1.81915032 13.2064537 1.78390969 13.2637014 1.75435304 13.3110788 1.72934357 13.3574692 1.69978692 13.4048466 1.67364065 13.2054666 1.7827729 13.0031256 1.88622118 12.7988105 1.98398548zM11.7446631 2.4732196C11.8246125 2.43184029 11.9065359 2.39682703 11.9854983 2.35385621 12.0940715 2.29497026 12.2006707 2.22653525 12.3082569 2.16287477 12.1226953 2.27428061 11.9341727 2.37613737 11.7446631 2.4732196zM.280172414.406519056C.183119225.307996889.0952219968.19715945 0 .0961742287L0 .133120041C.0897284201.229179155.188612801.312922997.280172414.406519056z"/>
    </g>
    <path fill="#FFF" d="M35.1724138,11.3793103 L30.4310345,8.27586207 C29.4827586,11.3793103 23.7931034,11.3793103 23.7931034,11.3793103 C23.7931034,14.8075862 27.4714655,17.5862069 29.4827586,17.5862069 C31.4940517,17.5862069 35.1724138,14.8075862 35.1724138,11.3793103 Z"/>
    <path fill="#B3D5E4" d="M30.4310345,8.27586207 L35.1724138,11.3793103 C35.1724138,7.95103448 34.2241379,4.13793103 29.4827586,4.13793103 C24.7413793,4.13793103 23.7931034,7.95103448 23.7931034,11.3793103 C23.7931034,11.3793103 29.4827586,11.3793103 30.4310345,8.27586207 Z"/>
    <g transform="translate(27.931 16.552)">
      <polygon fill="#F5A623" points="2.002 6.954 4.004 4.967 2.002 0 0 4.967"/>
      <path fill="#D45B5B" d="M20.4347052 41.493621C20.1894327 41.5976762 19.9401557 41.6791107 19.6888765 41.7514969 19.9391546 41.6768486 20.1884316 41.5976762 20.4347052 41.493621zM12.8591061 40.7167514C12.7628878 40.6579376 12.6715619 40.5878134 12.5769744 40.5289997 12.6715619 40.5900755 12.7628878 40.6579376 12.8591061 40.7167514zM16.351168 41.7505035C16.1008899 41.6781173 15.8516129 41.5966828 15.6053393 41.4926276 15.8516129 41.5989448 16.1008899 41.6781173 16.351168 41.7505035zM19.2503893 41.6625043C18.8449388 41.7484629 18.4354839 41.8027526 18.0200222 41.8027526 18.4354839 41.8027526 18.8449388 41.7484629 19.2503893 41.6625043zM21.5609566 41.2273816C21.3677419 41.3291747 21.1735261 41.4234275 20.976307 41.5101402 21.1735261 41.4234275 21.3677419 41.3310597 21.5609566 41.2273816zM18.0200222 41.8027526C17.6045606 41.8027526 17.1951057 41.7484629 16.7896552 41.6625043 17.1951057 41.7484629 17.6045606 41.8027526 18.0200222 41.8027526zM22.6061179 40.8836545C22.4599555 40.9808528 22.3157953 41.0798183 22.1676307 41.1664131 22.3157953 41.078051 22.4609566 40.9808528 22.6061179 40.8836545zM13.8724138 41.1664131C13.7242492 41.078051 13.5790879 40.9790855 13.4339266 40.8836545 13.5790879 40.9808528 13.7242492 41.078051 13.8724138 41.1664131zM15.0637375 41.5101402C14.8675195 41.4234275 14.6723026 41.3291747 14.4790879 41.2273816 14.6723026 41.3310597 14.8665184 41.4234275 15.0637375 41.5101402zM23.5730104 40.5289997C23.4784229 40.5900755 23.3854662 40.6579376 23.2908788 40.7167514 23.3854662 40.6579376 23.4767921 40.5900755 23.5730104 40.5289997zM16.7896552 41.7348167C16.6414905 41.7031477 16.4973304 41.648858 16.351168 41.6058787 16.4973304 41.648858 16.6414905 41.7031477 16.7896552 41.7348167zM19.6888765 41.6058787C19.5427141 41.648858 19.3975528 41.7031477 19.2503893 41.7348167 19.3985539 41.7031477 19.5427141 41.648858 19.6888765 41.6058787zM23.2898776 40.6114544C23.0666296 40.714651 22.8363737 40.8034 22.6061179 40.894213 22.8363737 40.804432 23.0666296 40.713619 23.2898776 40.6114544zM22.1676307 41.0426034C21.9684093 41.1459775 21.7651835 41.23719 21.5609566 41.325362 21.7651835 41.23719 21.9674082 41.1444573 22.1676307 41.0426034zM20.976307 41.3763962C20.7961068 41.4714031 20.6169077 41.5641479 20.4337041 41.6410583 20.6169077 41.5641479 20.7971079 41.4714031 20.976307 41.3763962zM14.4790879 41.325362C14.274861 41.23719 14.0726363 41.1459775 13.8724138 41.0426034 14.0726363 41.1444573 14.274861 41.23719 14.4790879 41.325362zM15.6053393 41.6420517C15.4231368 41.5651413 15.2429366 41.4723965 15.0627364 41.3773896 15.2429366 41.4701345 15.4231368 41.5628793 15.6053393 41.6420517zM13.4339266 40.894213C13.2036707 40.804432 12.9734149 40.714651 12.7501669 40.6114544 12.9734149 40.713619 13.2036707 40.804432 13.4339266 40.894213z"/>
      <path fill="#4CB648" d="M18.0200222,15.8948941 C10.8320356,15.8948941 5.00556174,21.6766618 5.00556174,28.8094955 C5.00556174,34.0110996 8.11101224,38.482532 12.5759733,40.5289997 C11.6599555,40.1067915 10.7979978,39.5872272 10.0111235,38.9752738 L10.0111235,36.0645213 C10.0111235,34.6349742 10.7309232,33.3007966 11.9292547,32.5080387 C12.6370412,32.0391393 13.4679644,31.7897882 14.3189099,31.7897882 L18.0200222,31.7897882 C15.896663,31.7897882 12.0133482,29.1214328 12.0133482,25.8292029 C12.0133482,22.536973 13.0144605,18.8751867 18.0200222,18.8751867 C23.025584,18.8751867 24.0266963,22.536973 24.0266963,25.8292029 C24.0266963,29.1214328 20.1433815,31.7897882 18.0200222,31.7897882 L21.7211346,31.7897882 C22.571079,31.7897882 23.4030033,32.0391393 24.1107898,32.5080387 C25.3091212,33.3007966 26.028921,34.6349742 26.028921,36.0645213 L26.028921,38.9752738 C25.2420467,39.5872272 24.380089,40.1067915 23.4640712,40.5289997 C27.9290323,38.482532 31.0344828,34.0110996 31.0344828,28.8094955 C31.0344828,21.6766618 25.2080089,15.8948941 18.0200222,15.8948941 Z"/>
    </g>
    <g fill="#B3D5E4" transform="translate(38.276 36.207)">
      <path d="M15.5172414 17.1214093C15.5172414 15.6975112 14.8199353 14.3686057 13.6590517 13.5789805 12.9733836 13.111934 12.1684267 12.8635682 11.3440733 12.8635682L7.75862069 12.8635682 9.69827586 17.8110945 7.75862069 19.7901049 5.81896552 17.8110945 7.75862069 12.8635682 4.1731681 12.8635682C3.34978448 12.8635682 2.54385776 13.111934 1.85818966 13.5789805.697306034 14.3686057 0 15.6975112 0 17.1214093L0 20.0206597C.762284483 20.6301949 1.59730603 21.1477061 2.48469828 21.5682459 2.54094828 21.5949625 2.59622845 21.6246477 2.65247845 21.6503748 2.86875 21.7493253 3.09181034 21.8344228 3.31487069 21.9214993 3.45646552 21.975922 3.59612069 22.0313343 3.73965517 22.0798201 3.93265086 22.1471064 4.12952586 22.2064768 4.32737069 22.2638681 4.51454741 22.3173013 4.70269397 22.3667766 4.89375 22.4122939 5.06831897 22.4538531 5.2419181 22.4944228 5.41939655 22.528066 5.65700431 22.5735832 5.89849138 22.6092054 6.1419181 22.6408696 6.28351293 22.6596702 6.42413793 22.6834183 6.56670259 22.6972714 6.95948276 22.7348726 7.35614224 22.7586207 7.75862069 22.7586207 8.16109914 22.7586207 8.55775862 22.7348726 8.95053879 22.6972714 9.09407328 22.6834183 9.23372845 22.6596702 9.37532328 22.6408696 9.61778017 22.6092054 9.85926724 22.5735832 10.0978448 22.528066 10.2743534 22.4944228 10.4489224 22.4538531 10.6234914 22.4122939 10.8135776 22.3667766 11.002694 22.3173013 11.1898707 22.2638681 11.3877155 22.2064768 11.5836207 22.1471064 11.7775862 22.0798201 11.9211207 22.0303448 12.0617457 21.9749325 12.2023707 21.9214993 12.425431 21.8354123 12.6484914 21.7493253 12.8647629 21.6503748 12.9219828 21.6246477 12.9762931 21.593973 13.0325431 21.5682459 13.9199353 21.1477061 14.7549569 20.6301949 15.5172414 20.0206597L15.5172414 17.1214093zM8.72844828 3.95802099L13.5775862 6.92653673C13.5775862 3.64731634 12.6077586 0 7.75862069 0 2.90948276 0 1.93965517 3.64731634 1.93965517 6.92653673 1.93965517 6.92653673 7.75862069 6.92653673 8.72844828 3.95802099z"/>
    </g>
    <path fill="#FFF" d="M51.7241379,43.4482759 L46.9827586,40.3448276 C46.0344828,43.4482759 40.3448276,43.4482759 40.3448276,43.4482759 C40.3448276,46.8765517 44.0231897,49.6551724 46.0344828,49.6551724 C48.0457759,49.6551724 51.7241379,46.8765517 51.7241379,43.4482759 Z"/>
    <g transform="translate(1.034 33.103)">
      <polygon fill="#F5A623" points="44.571 22.759 46.552 20.78 44.571 15.832 42.59 20.78"/>
      <path fill="#D45B5B" d="M12.6412693,16.9878261 C12.2876742,17.1510945 11.9241746,17.2995202 11.547799,17.4152924 C11.9241746,17.2985307 12.2866838,17.1510945 12.6412693,16.9878261 Z"/>
      <path fill="#4CB648" d="M3.96184886,13.8530735 C3.96184886,11.1210495 6.17949376,8.90554723 8.91415994,8.90554723 C7.27296405,8.90554723 5.94277329,7.57664168 5.94277329,5.93703148 C5.94277329,4.29742129 7.27296405,2.96851574 8.91415994,2.96851574 C10.5553558,2.96851574 11.8855466,4.29742129 11.8855466,5.93703148 C11.8855466,7.57664168 10.5553558,8.90554723 8.91415994,8.90554723 C11.6488261,8.90554723 13.866471,11.1210495 13.866471,13.8530735 L13.866471,16.3090255 C13.5485326,16.5217691 13.2117755,16.7068066 12.8670946,16.8789805 C15.8038151,15.4224288 17.8283199,12.4034483 17.8283199,8.90554723 C17.8283199,3.98671664 13.8377476,0 8.91415994,0 C3.99057227,0 0,3.98671664 0,8.90554723 C0,12.4034483 2.02450477,15.4224288 4.96122524,16.8789805 C4.61654439,16.7077961 4.27978723,16.5217691 3.96184886,16.3090255 L3.96184886,13.8530735 Z"/>
      <path fill="#D45B5B" d="M6.28052091 17.4152924C5.90315481 17.2985307 5.54064563 17.1510945 5.18705062 16.9878261 5.5416361 17.1510945 5.90414527 17.2985307 6.28052091 17.4152924zM11.5418562 17.4162819C11.1743947 17.5376415 10.7930668 17.6231208 10.407777 17.693826 10.7940572 17.6241761 11.1743947 17.5376415 11.5418562 17.4162819zM8.91415994 17.9243325C9.32322084 17.9243325 9.72336757 17.839959 10.118562 17.72006 9.72336757 17.839959 9.32322084 17.9243325 8.91415994 17.9243325zM8.91415994 17.9243325C8.50509905 17.9243325 8.10495231 17.839959 7.70975789 17.72006 8.10495231 17.839959 8.50509905 17.9243325 8.91415994 17.9243325zM7.42054292 17.693826C7.03426266 17.6241761 6.65392517 17.5376415 6.28646368 17.4162819 6.65392517 17.5376415 7.03426266 17.6241761 7.42054292 17.693826z"/>
    </g>
    <circle cx="10.345" cy="39.31" r="3.103" fill="#E4D9B3"/>
    <g fill="#D45B5B" transform="translate(6.207 49.655)">
      <path d="M6.43558621.827586207C6.43117241.830344828 6.42675862.830344828 6.42455172.830344828 6.42675862.830344828 6.43117241.830344828 6.43558621.827586207zM5.31806897 1.19172414C5.22441379 1.23586207 5.13075862 1.27724138 5.03613793 1.31586207 5.13075862 1.27724138 5.22441379 1.23586207 5.31806897 1.19172414zM7.77117241.08C7.67921839.184827586 7.58847429.284137931 7.49531034.383448276 7.58847429.284137931 7.67921839.182068966 7.77117241.08zM2.688 1.31448276C2.59337931 1.27862069 2.49972414 1.23724138 2.40606897 1.19034483 2.49972414 1.23724138 2.59337931 1.27862069 2.688 1.31448276zM.284551724.383448276C.19138778.286896552.0994337568.184827586.00868965517.08.100643678.182068966.19138778.284137931.284551724.383448276zM1.30675862.830344828C1.30234483.827586207 1.29793103.827586207 1.29572414.827586207 1.29793103.830344828 1.30234483.830344828 1.30675862.830344828z"/>
    </g>
    <path fill="#E4D9B3" d="M11.9058621,50.5489655 C12.3093103,50.4806897 12.7065517,50.3958621 13.0903448,50.2768966 C13.0924138,50.2758621 13.0944828,50.2758621 13.0955172,50.2758621 C13.4896552,50.1537931 13.8682759,49.9996552 14.2375862,49.8289655 C14.3172414,49.7927586 14.3958621,49.7544828 14.4734483,49.7151724 C14.8334483,49.5362069 15.1851724,49.3417241 15.5172414,49.1193103 L15.5172414,46.5517241 C15.5172414,43.6955172 13.2010345,41.3793103 10.3448276,41.3793103 C7.48862069,41.3793103 5.17241379,43.6955172 5.17241379,46.5517241 L5.17241379,49.1193103 C5.50448276,49.3417241 5.8562069,49.5351724 6.2162069,49.7151724 C6.29482759,49.7544828 6.37241379,49.7917241 6.45206897,49.8289655 C6.82137931,49.9996552 7.20103448,50.1548276 7.59413793,50.2758621 C7.5962069,50.2768966 7.59827586,50.2768966 7.59931034,50.2768966 C7.98310345,50.3958621 8.38137931,50.4796552 8.7837931,50.5489655 C8.88413793,50.5655172 8.98448276,50.5810345 9.08586207,50.5955172 C9.50068966,50.6503448 9.91862069,50.6896552 10.3458621,50.6896552 C10.7731034,50.6896552 11.1910345,50.6503448 11.6037931,50.5944828 C11.7051724,50.5810345 11.8055172,50.5655172 11.9058621,50.5489655 Z"/>
    <g fill="#4CB648" transform="translate(1.034 1.034)">
      <circle cx="20.975" cy="55.933" r="1.998"/>
      <circle cx="1.998" cy="1.998" r="1.998"/>
      <circle cx="53.936" cy="19.976" r="3.995"/>
      <circle cx="55.933" cy="1.998" r="1.998"/>
    </g>
    <path fill="#004789" d="M54.184,4 C54.598,5.161 55.698,6 57,6 C58.654,6 60,4.654 60,3 C60,1.346 58.654,0 57,0 C55.698,0 54.598,0.839 54.184,2 L42,2 C41.734,2 41.48,2.105 41.293,2.293 L39.678,3.908 C37.161,1.494 33.755,0 30,0 C22.618,0 16.567,5.747 16.051,13 L7.649,13 L4.382,5.647 C5.339,5.145 6,4.153 6,3 C6,1.346 4.654,0 3,0 C1.346,0 0,1.346 0,3 C0,4.416 0.989,5.599 2.311,5.912 L6.086,14.406 C6.247,14.767 6.604,15 7,15 L16.051,15 C16.29,18.357 17.711,21.387 19.908,23.678 L11.466,32.12 C10.986,32.049 10.499,32 10,32 C4.486,32 0,36.486 0,42 C0,45.451 1.757,48.498 4.423,50.296 C4.43,50.301 4.436,50.308 4.443,50.313 C4.483,50.34 4.528,50.358 4.569,50.385 C4.886,50.591 5.217,50.776 5.557,50.945 C5.664,50.998 5.77,51.051 5.879,51.1 C6.263,51.275 6.656,51.432 7.064,51.558 C7.113,51.573 7.164,51.582 7.214,51.597 C7.583,51.704 7.962,51.787 8.347,51.851 C8.46,51.87 8.572,51.888 8.685,51.903 C8.79,51.917 8.893,51.938 8.999,51.949 L8.999,57 C8.999,57.552 9.446,58 9.999,58 L19.183,58 C19.597,59.161 20.697,60 21.999,60 C23.653,60 24.999,58.654 24.999,57 C24.999,55.346 23.653,54 21.999,54 C20.697,54 19.597,54.839 19.183,56 L11,56 L11,51.949 C11.106,51.938 11.209,51.917 11.314,51.903 C11.428,51.888 11.54,51.87 11.652,51.851 C12.037,51.786 12.416,51.704 12.785,51.597 C12.835,51.583 12.885,51.574 12.935,51.558 C13.343,51.432 13.736,51.275 14.121,51.1 C14.229,51.051 14.336,50.998 14.443,50.945 C14.783,50.775 15.114,50.59 15.431,50.384 C15.472,50.358 15.517,50.34 15.557,50.312 C15.564,50.307 15.57,50.3 15.577,50.295 C18.243,48.498 20,45.451 20,42 C20,37.793 17.385,34.191 13.697,32.717 L21.389,25.025 C21.488,25.102 21.592,25.169 21.692,25.243 C21.894,25.392 22.093,25.544 22.303,25.682 C22.509,25.819 22.722,25.94 22.934,26.065 C23.129,26.18 23.324,26.295 23.525,26.4 C23.839,26.565 24.156,26.721 24.48,26.861 C24.588,26.908 24.699,26.946 24.809,26.99 C25.102,27.108 25.398,27.219 25.699,27.316 C25.822,27.356 25.947,27.391 26.072,27.428 C26.367,27.514 26.664,27.591 26.965,27.658 C27.098,27.688 27.231,27.716 27.365,27.742 C27.674,27.801 27.986,27.847 28.301,27.885 C28.427,27.9 28.551,27.92 28.677,27.932 C29.114,27.974 29.555,28 30,28 C30.445,28 30.886,27.974 31.324,27.933 C31.451,27.921 31.574,27.902 31.7,27.886 C32.014,27.848 32.327,27.802 32.636,27.743 C32.77,27.717 32.903,27.689 33.035,27.659 C33.336,27.592 33.633,27.515 33.928,27.429 C34.053,27.392 34.178,27.357 34.301,27.317 C34.602,27.219 34.898,27.109 35.191,26.991 C35.3,26.947 35.412,26.908 35.52,26.862 C35.845,26.722 36.163,26.566 36.477,26.4 C36.676,26.295 36.869,26.182 37.062,26.068 C37.275,25.942 37.489,25.82 37.696,25.683 C37.906,25.544 38.105,25.393 38.307,25.244 C38.407,25.17 38.512,25.103 38.61,25.026 L45.605,32.022 C38.069,32.231 32,38.413 32,46 C32,50.461 34.105,54.433 37.366,56.998 C37.374,57.004 37.376,57.014 37.384,57.02 C37.485,57.099 37.591,57.166 37.693,57.242 C37.895,57.391 38.094,57.543 38.304,57.681 C38.51,57.818 38.723,57.939 38.935,58.064 C39.13,58.179 39.325,58.294 39.526,58.399 C39.84,58.564 40.157,58.72 40.481,58.86 C40.589,58.907 40.7,58.945 40.81,58.989 C41.103,59.107 41.399,59.218 41.7,59.315 C41.823,59.355 41.948,59.39 42.073,59.427 C42.368,59.513 42.665,59.59 42.966,59.657 C43.099,59.687 43.232,59.715 43.366,59.741 C43.675,59.8 43.987,59.846 44.302,59.884 C44.428,59.899 44.552,59.919 44.678,59.931 C45.114,59.974 45.555,60 46,60 C46.445,60 46.886,59.974 47.324,59.933 C47.451,59.921 47.574,59.902 47.7,59.886 C48.014,59.848 48.327,59.802 48.636,59.743 C48.77,59.717 48.903,59.689 49.035,59.659 C49.336,59.592 49.633,59.515 49.928,59.429 C50.053,59.392 50.178,59.357 50.301,59.317 C50.602,59.219 50.898,59.109 51.191,58.991 C51.3,58.947 51.412,58.908 51.52,58.862 C51.845,58.722 52.163,58.566 52.477,58.4 C52.676,58.295 52.869,58.182 53.062,58.068 C53.275,57.942 53.489,57.82 53.696,57.683 C53.906,57.544 54.105,57.393 54.307,57.244 C54.409,57.168 54.515,57.101 54.616,57.022 C54.624,57.016 54.627,57.006 54.634,57 C57.895,54.433 60,50.461 60,46 C60,39.196 55.12,33.517 48.677,32.263 L40.092,23.677 C42.289,21.387 43.71,18.356 43.949,14.999 L54,14.999 L54,16.1 C51.721,16.565 50,18.584 50,20.999 C50,23.756 52.243,25.999 55,25.999 C57.757,25.999 60,23.756 60,20.999 C60,18.585 58.279,16.565 56,16.1 L56,14 C56,13.448 55.553,13 55,13 L43.949,13 C43.746,10.143 42.686,7.524 41.019,5.395 L42.414,4 L54.184,4 Z M57,2 C57.552,2 58,2.449 58,3 C58,3.551 57.552,4 57,4 C56.448,4 56,3.551 56,3 C56,2.449 56.448,2 57,2 Z M3,2 C3.552,2 4,2.449 4,3 C4,3.551 3.552,4 3,4 C2.448,4 2,3.551 2,3 C2,2.449 2.448,2 3,2 Z M22,56 C22.552,56 23,56.449 23,57 C23,57.551 22.552,58 22,58 C21.448,58 21,57.551 21,57 C21,56.449 21.448,56 22,56 Z M8,39 C8,37.897 8.897,37 10,37 C11.103,37 12,37.897 12,39 C12,40.103 11.103,41 10,41 C8.897,41 8,40.103 8,39 Z M10,43 C12.206,43 14,44.794 14,47 L14,48.918 C13.969,48.936 13.94,48.956 13.91,48.973 C11.524,50.312 8.477,50.312 6.091,48.973 C6.06,48.955 6.031,48.935 6,48.918 L6,47 C6,44.794 7.794,43 10,43 Z M18,42 C18,44.021 17.241,45.864 16,47.274 L16,47 C16,44.74 14.744,42.77 12.893,41.747 C13.575,41.029 14,40.065 14,39 C14,36.794 12.206,35 10,35 C7.794,35 6,36.794 6,39 C6,40.065 6.425,41.029 7.107,41.747 C5.256,42.77 4,44.74 4,47 L4,47.274 C2.759,45.864 2,44.021 2,42 C2,37.589 5.589,34 10,34 C14.411,34 18,37.589 18,42 Z M58,21 C58,22.654 56.654,24 55,24 C53.346,24 52,22.654 52,21 C52,19.346 53.346,18 55,18 C56.654,18 58,19.346 58,21 Z M31.379,9.394 L34.953,11.539 C34.552,13.987 31.535,16 30,16 C28.551,16 25.784,14.208 25.139,11.948 C26.851,11.807 29.942,11.288 31.379,9.394 Z M25.055,9.942 C25.323,6.591 26.904,5 30,5 C32.838,5 34.397,6.342 34.847,9.142 L31.515,7.143 C31.255,6.987 30.938,6.958 30.654,7.062 C30.369,7.167 30.148,7.396 30.052,7.684 C29.546,9.202 26.814,9.775 25.055,9.942 Z M30,19.692 L30.826,21.759 L30,22.586 L29.174,21.759 L30,19.692 Z M28.523,18 L27.072,21.628 C26.924,22 27.01,22.424 27.294,22.707 L29.294,24.707 C29.488,24.902 29.744,25 30,25 C30.256,25 30.512,24.902 30.707,24.707 L32.707,22.707 C32.99,22.424 33.077,22 32.929,21.628 L31.477,18 L33.697,18 C34.351,18 34.984,18.192 35.529,18.555 C36.45,19.168 37,20.196 37,21.303 L37,23.723 C36.781,23.881 36.559,24.033 36.332,24.175 C36.26,24.22 36.188,24.263 36.116,24.307 C35.875,24.45 35.631,24.586 35.382,24.712 C35.294,24.756 35.204,24.798 35.115,24.841 C34.875,24.955 34.632,25.063 34.385,25.161 C34.276,25.204 34.165,25.242 34.054,25.282 C33.82,25.367 33.585,25.448 33.347,25.518 C33.207,25.559 33.063,25.592 32.921,25.628 C32.718,25.679 32.514,25.731 32.308,25.772 C32.286,25.776 32.263,25.781 32.241,25.785 C32.055,25.82 31.865,25.845 31.676,25.871 C31.542,25.89 31.408,25.913 31.273,25.927 C31.221,25.932 31.169,25.94 31.117,25.945 C30.748,25.978 30.377,26 30,26 C29.623,26 29.252,25.978 28.884,25.943 C28.832,25.938 28.78,25.93 28.728,25.925 C28.593,25.91 28.459,25.888 28.325,25.869 C28.136,25.842 27.946,25.818 27.76,25.783 C27.738,25.779 27.715,25.774 27.693,25.77 C27.487,25.729 27.283,25.678 27.08,25.626 C26.937,25.59 26.794,25.557 26.654,25.516 C26.415,25.446 26.18,25.365 25.947,25.28 C25.836,25.24 25.725,25.202 25.616,25.159 C25.369,25.061 25.126,24.954 24.886,24.839 C24.797,24.797 24.707,24.755 24.619,24.71 C24.37,24.584 24.125,24.449 23.885,24.305 C23.812,24.262 23.74,24.218 23.669,24.173 C23.441,24.031 23.219,23.879 23.001,23.721 L23.001,21.301 C23.001,20.194 23.551,19.167 24.472,18.553 C25.016,18.192 25.648,18 26.303,18 L28.523,18 Z M47.379,41.394 L50.953,43.539 C50.552,45.987 47.535,48 46,48 C44.551,48 41.784,46.208 41.139,43.948 C42.851,43.807 45.942,43.288 47.379,41.394 Z M41.055,41.942 C41.323,38.591 42.904,37 46,37 C48.838,37 50.397,38.342 50.847,41.142 L47.515,39.143 C47.254,38.987 46.937,38.958 46.654,39.062 C46.369,39.167 46.148,39.396 46.052,39.684 C45.546,41.202 42.814,41.775 41.055,41.942 Z M46,51.692 L46.826,53.759 L46,54.586 L45.174,53.759 L46,51.692 Z M44.523,50 L43.072,53.628 C42.924,54 43.01,54.424 43.294,54.707 L45.294,56.707 C45.488,56.902 45.744,57 46,57 C46.256,57 46.512,56.902 46.707,56.707 L48.707,54.707 C48.99,54.424 49.077,54 48.929,53.628 L47.477,50 L49.697,50 C50.351,50 50.984,50.192 51.529,50.555 C52.45,51.168 53,52.196 53,53.303 L53,55.727 C52.971,55.748 52.944,55.77 52.915,55.79 C52.747,55.909 52.576,56.021 52.404,56.131 C52.268,56.217 52.131,56.301 51.991,56.382 C51.841,56.469 51.691,56.555 51.538,56.635 C51.332,56.743 51.121,56.843 50.908,56.939 C50.808,56.984 50.71,57.034 50.61,57.076 C50.282,57.213 49.946,57.337 49.604,57.445 C49.543,57.464 49.481,57.479 49.42,57.497 C49.133,57.583 48.842,57.658 48.546,57.722 C48.444,57.744 48.342,57.763 48.24,57.782 C47.972,57.833 47.701,57.874 47.427,57.906 C47.324,57.918 47.221,57.933 47.117,57.942 C46.748,57.978 46.377,58 46,58 C45.623,58 45.252,57.978 44.884,57.943 C44.78,57.933 44.677,57.919 44.574,57.907 C44.3,57.874 44.029,57.833 43.761,57.783 C43.659,57.764 43.557,57.745 43.455,57.723 C43.159,57.659 42.868,57.583 42.581,57.498 C42.52,57.48 42.457,57.466 42.397,57.446 C42.055,57.338 41.72,57.214 41.391,57.077 C41.29,57.035 41.192,56.985 41.093,56.94 C40.88,56.844 40.669,56.744 40.463,56.636 C40.31,56.556 40.16,56.47 40.01,56.383 C39.871,56.302 39.733,56.218 39.597,56.132 C39.425,56.022 39.253,55.911 39.086,55.791 C39.057,55.771 39.03,55.748 39.001,55.728 L39.001,53.304 C39.001,52.197 39.551,51.17 40.472,50.556 C41.016,50.192 41.648,50 42.303,50 L44.523,50 Z M58,46 C58,49.032 56.861,51.796 55,53.911 L55,53.303 C55,51.526 54.117,49.876 52.639,48.891 C51.952,48.433 51.174,48.151 50.363,48.049 C51.847,46.764 53,44.963 53,43 C53,36.388 49.193,35 46,35 C42.807,35 39,36.388 39,43 C39,44.963 40.153,46.764 41.637,48.049 C40.826,48.151 40.049,48.433 39.361,48.891 C37.883,49.876 37,51.525 37,53.303 L37,53.911 C35.139,51.796 34,49.032 34,46 C34,39.383 39.383,34 46,34 C52.617,34 58,39.383 58,46 Z M39,21.911 L39,21.303 C39,19.526 38.117,17.876 36.639,16.891 C35.952,16.433 35.174,16.151 34.363,16.049 C35.847,14.764 37,12.963 37,11 C37,4.388 33.193,3 30,3 C26.807,3 23,4.388 23,11 C23,12.963 24.153,14.764 25.637,16.049 C24.826,16.151 24.049,16.433 23.361,16.891 C21.883,17.876 21,19.525 21,21.303 L21,21.911 C19.139,19.796 18,17.032 18,14 C18,7.383 23.383,2 30,2 C36.617,2 42,7.383 42,14 C42,17.032 40.861,19.796 39,21.911 Z"/>
  </g>
</svg>
