<?xml version="1.0" encoding="UTF-8"?>
<svg width="35px" height="35px" viewBox="0 0 35 35" version="1.1" xmlns="http://www.w3.org/2000/svg" xmlns:xlink="http://www.w3.org/1999/xlink">
    <title>facebook</title>
    <g id="Bases" stroke="none" stroke-width="1" fill="none" fill-rule="evenodd">
        <g id="icon" transform="translate(-27.000000, -460.000000)">
            <g id="facebook" transform="translate(27.000000, 460.000000)">
                <path d="M35,17.3548916 C35,7.77078724 27.1642394,0 17.5,0 C7.83576064,0 0,7.77078724 0,17.3548916 C0,26.0164569 6.39859898,33.1965949 14.7658941,34.5 L14.7658941,22.372741 L10.3213237,22.372741 L10.3213237,17.3548916 L14.7658941,17.3548916 L14.7658941,13.5304846 C14.7658941,9.1813526 17.3794291,6.77738624 21.3760304,6.77738624 C23.2906312,6.77738624 25.2939107,7.11661587 25.2939107,7.11661587 L25.2939107,11.3876797 L23.0863604,11.3876797 C20.9133935,11.3876797 20.2341059,12.7251145 20.2341059,14.0991146 L20.2341059,17.3547582 L25.0870832,17.3547582 L24.3118502,22.3726076 L20.2339713,22.3726076 L20.2339713,34.5 C28.6012665,33.1988635 35,26.0187255 35,17.3547582 L35,17.3548916 Z" id="Path" fill="#1977F3"></path>
                <path d="M24.5161415,22.6329655 L25.2927938,17.6029717 L20.4309313,17.6029717 L20.4309313,14.3394487 C20.4309313,12.9645311 21.1089012,11.6214514 23.288408,11.6214514 L25.5,11.6214514 L25.5,7.34005064 C25.5,7.34005064 23.4931875,7 21.5749465,7 C17.571028,7 14.9527079,9.40737662 14.9527079,13.7694425 L14.9527079,17.6031054 L10.5,17.6031054 L10.5,22.6330992 L14.9527079,22.6330992 L14.9527079,34.789709 C15.8451638,34.9289666 16.7598637,35 17.6918196,35 C18.6237755,35 19.5384754,34.9265587 20.4309313,34.789709 L20.4309313,22.6330992 L24.5162763,22.6330992 L24.5161415,22.6329655 Z" id="Path" fill="#FEFEFE"></path>
            </g>
        </g>
    </g>
</svg>