<?xml version="1.0" encoding="UTF-8"?>
<svg width="32px" height="28px" viewBox="0 0 32 28" version="1.1" xmlns="http://www.w3.org/2000/svg" xmlns:xlink="http://www.w3.org/1999/xlink">
    <title>flag</title>
    <g id="Bases" stroke="none" stroke-width="1" fill="none" fill-rule="evenodd">
        <g id="icon" transform="translate(-271.000000, -292.000000)" fill-rule="nonzero">
            <g id="flag" transform="translate(271.000000, 292.000000)">
                <path d="M6.16513761,5.28440367 C11.5926297,8.16207241 25.8488197,8.67860011 32,6.53874904 L24.4841376,14.6074037 L23.7304954,12.2715596 L22.1451743,12.2715596 L20.4013211,17.4714128 L18.7314495,12.2715596 L16.9558899,12.2715596 L19.3867156,19.6697248 L21.2151193,19.6697248 L22.8955596,14.6601101 L24.523156,19.6697248 L26.3621284,19.6697248 L26.5521376,19.0874037 L32,26.6086208 C25.8488197,28.6746624 11.664951,28.2319442 6.16513761,25.3542754 L6.16513761,5.28440367 Z M16.2055046,12.2715596 L10.6146055,12.2715596 L10.6146055,19.6697248 L16.3428991,19.6697248 L16.3428991,18.2957798 L12.3161835,18.2957798 L12.3161835,16.583633 L15.7510459,16.583633 L15.7510459,15.2519633 L12.3161835,15.2519633 L12.3161835,13.6455046 L16.2055046,13.6455046 L16.2055046,12.2715596 Z" id="Combined-Shape" fill="#EC202D"></path>
                <polygon id="Path" fill="#BB030F" points="6.16513761 25.2477064 10.5688073 23.0723915 7.32016524 13.2110092 6.16513761 14.878728"></polygon>
                <path d="M1.33503809e-13,0.196952821 L1.33503809e-13,20.0435502 C1.33503809e-13,20.0435502 5.101676,18.6520701 10.2752294,23.1926606 L10.2752294,3.41932065 C5.10174336,-1.19445866 1.33503809e-13,0.196952821 1.33503809e-13,0.196952821 Z" id="Path" fill="#FF3340"></path>
                <polygon id="N" fill="#FFFFFF" points="5.0507156 17.3211009 5.0507156 12.8293578 8.73922936 17.3211009 10.1448807 17.3211009 10.1448807 9.92293578 8.45387156 9.92293578 8.45387156 14.4146789 4.77592661 9.92293578 3.35970642 9.92293578 3.35970642 17.3211009"></polygon>
            </g>
        </g>
    </g>
</svg>