<svg xmlns="http://www.w3.org/2000/svg" width="47" height="60" viewBox="0 0 47 60">
  <g fill="none">
    <path fill="#996459" d="M42.1875,4.6875 L4.6875,4.6875 C2.10292969,4.6875 0,6.79042969 0,9.375 L0,55.3125 C0,57.8970703 2.10292969,60 4.6875,60 L42.1875,60 C44.7720703,60 46.875,57.8970703 46.875,55.3125 L46.875,9.375 C46.875,6.79042969 44.7720703,4.6875 42.1875,4.6875 Z"/>
    <path fill="#FFF" d="M42.140625,8.4375 C42.6842578,8.4375 43.125,8.874375 43.125,9.41332031 L43.125,55.2742969 C43.125,55.8132422 42.6842578,56.2501172 42.140625,56.2501172 L4.734375,56.2501172 C4.19074219,56.2501172 3.75,55.8132422 3.75,55.2742969 L3.75,9.41320312 C3.75,8.874375 4.19074219,8.4375 4.734375,8.4375 L42.140625,8.4375 Z"/>
    <path fill="#B4B6BC" d="M16.875,25.3125 L11.25,25.3125 C10.2164063,25.3125 9.375,24.4710938 9.375,23.4375 L9.375,17.8125 C9.375,16.7789063 10.2164063,15.9375 11.25,15.9375 L16.875,15.9375 C17.9085938,15.9375 18.75,16.7789063 18.75,17.8125 L18.75,23.4375 C18.75,24.4710938 17.9085938,25.3125 16.875,25.3125 Z M11.25,17.8125 L11.25,23.4375 L16.876875,23.4375 L16.875,17.8125 L11.25,17.8125 Z"/>
    <path fill="#5C546A" d="M24.375,18.75 L21.5625,18.75 C21.0442969,18.75 20.625,18.3307031 20.625,17.8125 C20.625,17.2942969 21.0442969,16.875 21.5625,16.875 L24.375,16.875 C24.8932031,16.875 25.3125,17.2942969 25.3125,17.8125 C25.3125,18.3307031 24.8932031,18.75 24.375,18.75 Z"/>
    <path fill="#868491" d="M35.625,22.5 L21.5625,22.5 C21.0442969,22.5 20.625,22.0807031 20.625,21.5625 C20.625,21.0442969 21.0442969,20.625 21.5625,20.625 L35.625,20.625 C36.1432031,20.625 36.5625,21.0442969 36.5625,21.5625 C36.5625,22.0807031 36.1432031,22.5 35.625,22.5 Z"/>
    <path fill="#5C546A" d="M30.9375,31.875 L21.5625,31.875 C21.0442969,31.875 20.625,31.4557031 20.625,30.9375 C20.625,30.4192969 21.0442969,30 21.5625,30 L30.9375,30 C31.4557031,30 31.875,30.4192969 31.875,30.9375 C31.875,31.4557031 31.4557031,31.875 30.9375,31.875 Z"/>
    <path fill="#868491" d="M35.625,35.625 L21.5625,35.625 C21.0442969,35.625 20.625,35.2057031 20.625,34.6875 C20.625,34.1692969 21.0442969,33.75 21.5625,33.75 L35.625,33.75 C36.1432031,33.75 36.5625,34.1692969 36.5625,34.6875 C36.5625,35.2057031 36.1432031,35.625 35.625,35.625 Z"/>
    <path fill="#5C546A" d="M25.3125,44.0625 L21.5625,44.0625 C21.0442969,44.0625 20.625,43.6432031 20.625,43.125 C20.625,42.6067969 21.0442969,42.1875 21.5625,42.1875 L25.3125,42.1875 C25.8307031,42.1875 26.25,42.6067969 26.25,43.125 C26.25,43.6432031 25.8307031,44.0625 25.3125,44.0625 Z"/>
    <path fill="#868491" d="M35.625 47.8125L21.5625 47.8125C21.0442969 47.8125 20.625 47.3932031 20.625 46.875 20.625 46.3567969 21.0442969 45.9375 21.5625 45.9375L35.625 45.9375C36.1432031 45.9375 36.5625 46.3567969 36.5625 46.875 36.5625 47.3932031 36.1432031 47.8125 35.625 47.8125zM27.1875 4.6875C26.6692969 4.6875 26.25 4.26820312 26.25 3.75L26.25 2.8125C26.25 2.29523437 25.8297656 1.875 25.3125 1.875L21.5625 1.875C21.0452344 1.875 20.625 2.29523437 20.625 2.8125L20.625 3.75C20.625 4.26820312 20.2057031 4.6875 19.6875 4.6875 19.1692969 4.6875 18.75 4.26820312 18.75 3.75L18.75 2.8125C18.75 1.26164063 20.0116406 0 21.5625 0L25.3125 0C26.8633594 0 28.125 1.26164063 28.125 2.8125L28.125 3.75C28.125 4.26820312 27.7057031 4.6875 27.1875 4.6875z"/>
    <path fill="#B4B6BC" d="M33.75 2.8125L13.125 2.8125C12.6072656 2.8125 12.1875 3.23226563 12.1875 3.75L12.1875 6.5625C12.1875 9.15128906 14.2862109 11.25 16.875 11.25L30 11.25C32.5887891 11.25 34.6875 9.15128906 34.6875 6.5625L34.6875 3.75C34.6875 3.23226563 34.2677344 2.8125 33.75 2.8125zM16.875 37.5L11.25 37.5C10.2164063 37.5 9.375 36.6585938 9.375 35.625L9.375 30C9.375 28.9664063 10.2164063 28.125 11.25 28.125L16.875 28.125C17.9085938 28.125 18.75 28.9664063 18.75 30L18.75 35.625C18.75 36.6585938 17.9085938 37.5 16.875 37.5zM11.25 30L11.25 35.625 16.876875 35.625 16.875 30 11.25 30zM16.875 49.6875L11.25 49.6875C10.2164063 49.6875 9.375 48.8460938 9.375 47.8125L9.375 42.1875C9.375 41.1539062 10.2164063 40.3125 11.25 40.3125L16.875 40.3125C17.9085938 40.3125 18.75 41.1539062 18.75 42.1875L18.75 47.8125C18.75 48.8460938 17.9085938 49.6875 16.875 49.6875zM11.25 42.1875L11.25 47.8125 16.876875 47.8125 16.875 42.1875 11.25 42.1875z"/>
    <path fill="#FF4F19" d="M15,34.6875 C14.7601172,34.6875 14.5202344,34.5959766 14.3371875,34.4128125 L12.4621875,32.5378125 C12.0959766,32.1716016 12.0959766,31.5782813 12.4621875,31.2120703 C12.8283984,30.8458594 13.4217187,30.8458594 13.7879297,31.2120703 L15,32.4242578 L19.0246875,28.3995703 C19.3908984,28.0333594 19.9842187,28.0333594 20.3504297,28.3995703 C20.7166406,28.7657813 20.7166406,29.3589844 20.3504297,29.7251953 L15.6629297,34.4126953 C15.4797656,34.5959766 15.2398828,34.6875 15,34.6875 Z"/>
  </g>
</svg>
