<svg xmlns="http://www.w3.org/2000/svg" width="29" height="22" viewBox="0 0 29 22">
  <g fill="none" fill-rule="evenodd">
    <path fill="#FAAC18" fill-rule="nonzero" d="M16.7835226,21.8635796 C16.7835226,21.8635796 15.8642143,21.6836124 15.4414308,21.4404135 C15.0137312,21.1972147 12.6736735,20.1611874 11.0906933,21.1485749 C11.0906933,21.1485749 10.4368537,21.6982043 9.7731819,21.7663 C9.7731819,21.7663 10.6187489,22.0727306 11.4938125,21.8295317 C11.4938125,21.8295317 12.2410578,21.6203807 12.6638413,21.3188141 C12.6638413,21.3188141 13.597898,20.9102399 14.4680454,21.3236781 C15.3381929,21.7371162 15.230039,21.8538516 15.9576199,21.9657231 C16.6852009,22.0824586 16.7835226,21.8635796 16.7835226,21.8635796 L16.7835226,21.8635796 Z M11.1398542,20.2195551 C11.1398542,20.2195551 10.7563994,19.1348881 9.42905579,18.8090016 C9.42905579,18.8090016 9.64044755,19.7574773 10.7170707,20.1222756 C10.7170707,20.1222756 8.56382439,20.1563234 7.72807916,21.3674539 C7.72317344,21.3674539 9.46838449,22.0484107 11.1398542,20.2195551 Z M8.94236313,19.8644848 C8.94236313,19.8644848 8.85878963,18.716586 7.66418037,18.0550851 C7.66418037,18.0550851 7.61501949,19.0278806 8.55399222,19.6553337 C8.55399222,19.6553337 6.46465505,19.1251602 5.338871,20.0784998 C5.34378709,20.0784998 6.84319376,21.1923507 8.94236313,19.8644848 L8.94236313,19.8644848 Z M6.61213765,16.9315062 C6.61213765,16.9315062 7.25122903,18.0064453 6.54822852,19.168936 C6.54822852,19.168936 4.40481439,19.820709 3.03322598,18.2691001 C3.03322598,18.2691001 4.7587727,17.7048787 6.43515851,19.0667924 C6.4400746,19.0667924 5.92880151,17.8410701 6.61213765,16.9315062 L6.61213765,16.9315062 Z M5.23563317,17.5881432 C5.23563317,17.5881432 4.85217834,16.3770128 5.50601798,15.6766 C5.50601798,15.6766 6.12544499,16.7855869 5.28479404,17.7486545 C5.28479404,17.7486545 2.95456857,18.2010044 2.06967283,16.6153477 C2.06967283,16.6250756 3.48550602,16.1629978 5.23563317,17.5881432 L5.23563317,17.5881432 Z M4.10001695,16.0803102 C4.10001695,16.0803102 3.87387693,14.9907792 4.53754874,14.2855024 C4.53754874,14.2855024 5.08323445,15.2777538 4.18850654,16.2845972 C4.18850654,16.2845972 1.73537888,16.2310934 1.23884444,14.8983636 C1.23393797,14.9032276 3.11679946,14.810812 4.10001695,16.0803102 Z M3.78538735,12.7873973 C3.78538735,12.7873973 4.09510087,13.9839358 3.22986947,14.6308448 C3.22986947,14.6308448 1.2142736,14.6843486 0.57026616,13.0986918 C0.57026616,13.0986918 2.29581287,13.1473316 3.16596034,14.4849255 C3.16596034,14.4849255 3.11679946,13.3175708 3.78538735,12.7873973 Z M3.14137991,11.3038841 C3.14137991,11.3038841 3.42651298,12.2912715 2.53178507,12.9770924 C2.53178507,12.9770924 0.59484661,12.8749489 0.0983217541,11.3768438 C0.0983217541,11.3768438 1.62230887,11.4400755 2.43346331,12.850629 C2.43346331,12.845765 2.36955418,11.9653851 3.14137991,11.3038841 L3.14137991,11.3038841 Z M2.91032378,9.86414671 C2.91032378,9.86414671 3.05289033,10.661839 2.13358196,11.4400755 C2.13358196,11.4400755 0.245804362,10.9293578 0,9.65985964 C0,9.65985964 1.61247668,10.0003381 2.10900154,11.333068 C2.11391762,11.328204 2.05000849,10.4964638 2.91032378,9.86414671 L2.91032378,9.86414671 Z M2.83658248,8.55573672 C2.83658248,8.55573672 2.89065944,9.44584462 1.91235803,9.86901068 C1.91235803,9.86901068 0.0884895833,9.05186244 0.162230887,7.92341962 C0.162230887,7.92341962 1.26835056,8.02556315 1.91235803,9.75227522 C1.91727411,9.75227522 2.12374979,8.88162322 2.83658248,8.55573672 Z M2.99389728,7.21814286 C2.99389728,7.21814286 2.85133073,8.02069918 1.93693848,8.37576953 C1.93693848,8.37576953 0.398203102,7.38838207 0.521105283,6.28912313 C0.521105283,6.28912313 1.76487542,6.85334453 1.94185456,8.23957817 C1.94185456,8.23957817 2.12374979,7.68508472 2.99389728,7.21814286 L2.99389728,7.21814286 Z M3.26428209,5.880549 C3.26428209,5.880549 3.17087642,6.63932951 2.2024072,6.89225636 C2.2024072,6.89225636 0.919308385,6.30857903 0.993049666,4.81047391 C0.993049666,4.81047391 2.10900151,5.36983133 2.21715546,6.77065692 C2.21223938,6.77065692 2.60552637,5.9243248 3.26428209,5.880549 Z M3.70672996,4.62564276 C3.70672996,4.62564276 3.09221903,4.67914652 2.61044245,5.3795593 C2.61044245,5.3795593 2.51703679,3.89604613 1.58298017,3.43883221 C1.58298017,3.43883221 1.24868622,4.55268311 2.57111375,5.54979852 C2.57602983,5.54979852 3.4117647,5.39415123 3.70672996,4.62564276 L3.70672996,4.62564276 Z M4.15901,3.50206392 C4.15901,3.50206392 3.79521954,4.22679661 3.0627225,4.25598046 C3.0627225,4.25598046 1.96643499,3.3075048 2.25156806,2.21310984 C2.25156806,2.21310984 3.08238684,2.81137909 3.09221903,4.10033317 C3.09713512,4.10033317 3.45109343,3.54097575 4.15901,3.50206392 Z M4.72436008,2.41253293 C4.72436008,2.41253293 4.51296831,3.06430593 3.57399561,3.08376184 C3.57399561,3.08376184 2.68909987,2.01368675 3.09221903,1.04089124 C3.09221903,1.04089124 3.76080692,1.57592878 3.64773691,2.90379467 C3.64773691,2.89893069 4.11476523,2.38334905 4.72436008,2.41253293 Z M5.37819971,1.4397374 C5.37819971,1.4397374 5.03407359,2.04287062 4.2769961,1.96991097 C4.2769961,1.96991097 3.4117647,0.856060072 3.9279539,0 C3.9279539,0 4.5572131,0.603133226 4.32615697,1.8288556 C4.32615697,1.8288556 4.77843702,1.38623364 5.37819971,1.4397374 Z M5.86980846,0.70527676 C5.86980846,0.70527676 5.55026277,1.29381806 4.72927616,1.18681055 C4.72927616,1.18681055 4.60145789,0.282110699 5.17664012,0 C5.17664012,0 5.34378709,0.466941864 5.00457706,0.938747703 C4.99966097,0.938747703 5.27987796,0.656637004 5.86980846,0.70527676 Z M6.13036108,0.0535037545 C6.13036108,0.0535037545 6.05170369,0.603133226 5.4568571,0.55449347 C5.4568571,0.55449347 5.49126972,0.0972795805 6.13036108,0.0535037545 Z M12.2213935,21.8635796 C12.2213935,21.8635796 13.1407018,21.6836124 13.5634853,21.4404135 C13.9862688,21.1972147 16.3312426,20.1611874 17.9142228,21.1485749 C17.9142228,21.1485749 18.5680624,21.6982043 19.2317342,21.7663 C19.2317342,21.7663 18.3861672,22.0727306 17.5111036,21.8295317 C17.5111036,21.8295317 16.7638583,21.6203807 16.3410748,21.3188141 C16.3410748,21.3188141 15.4070181,20.9102399 14.5368707,21.3236781 C13.6667232,21.7371162 13.7748771,21.8538516 13.0472962,21.9657231 C12.3197152,22.0824586 12.2213935,21.8635796 12.2213935,21.8635796 Z M17.8650619,20.2195551 C17.8650619,20.2195551 18.2485167,19.1348881 19.5758603,18.8090016 C19.5758603,18.8090016 19.3644686,19.7574773 18.2878454,20.1222756 C18.2878454,20.1222756 20.4410917,20.1563234 21.2768369,21.3674539 C21.2817427,21.3674539 19.5365316,22.0484107 17.8650619,20.2195551 Z M20.062553,19.8644848 C20.062553,19.8644848 20.1461265,18.716586 21.3407357,18.0550851 C21.3407357,18.0550851 21.3898966,19.0278806 20.4509239,19.6553337 C20.4509239,19.6553337 22.5402611,19.1251602 23.6660451,20.0784998 C23.661129,20.0784998 22.1617223,21.1923507 20.062553,19.8644848 L20.062553,19.8644848 Z M22.3927785,16.9315062 C22.3927785,16.9315062 21.7536871,18.0064453 22.4566876,19.168936 C22.4566876,19.168936 24.6001017,19.820709 25.9716901,18.2691001 C25.9716901,18.2691001 24.2461434,17.7048787 22.5648415,19.0667924 C22.5648415,19.0667924 23.0761146,17.8410701 22.3927785,16.9315062 L22.3927785,16.9315062 Z M23.7692829,17.5881432 C23.7692829,17.5881432 24.1527378,16.3770128 23.4988981,15.6766 C23.4988981,15.6766 22.8794711,16.7855869 23.7201221,17.7486545 C23.7201221,17.7486545 26.0503475,18.2010044 26.9352433,16.6153477 C26.9352433,16.6250756 25.5194101,16.1629978 23.7692829,17.5881432 L23.7692829,17.5881432 Z M24.9048991,16.0803102 C24.9048991,16.0803102 25.1310392,14.9907792 24.4673673,14.2855024 C24.4673673,14.2855024 23.9216816,15.2777538 24.8164096,16.2845972 C24.8164096,16.2845972 27.2695372,16.2310934 27.7660717,14.8983636 C27.7709781,14.9032276 25.8881166,14.810812 24.9048991,16.0803102 Z M25.2195287,12.7873973 C25.2195287,12.7873973 24.9098152,13.9839358 25.7750466,14.6308448 C25.7750466,14.6308448 27.7906425,14.6843486 28.4346499,13.0986918 C28.4346499,13.0986918 26.7091032,13.1473316 25.8389558,14.4849255 C25.8389558,14.4849255 25.8881166,13.3175708 25.2195287,12.7873973 L25.2195287,12.7873973 Z M25.8635362,11.3038841 C25.8635362,11.3038841 25.5784031,12.2912715 26.473131,12.9770924 C26.473131,12.9770924 28.4100695,12.8749489 28.9065944,11.3768438 C28.9065944,11.3768438 27.3826072,11.4400755 26.5714528,12.850629 C26.5714528,12.845765 26.6304458,11.9653851 25.8635362,11.3038841 L25.8635362,11.3038841 Z M26.0896762,9.86414671 C26.0896762,9.86414671 25.9471097,10.661839 26.866418,11.4400755 C26.866418,11.4400755 28.7541956,10.9293578 29,9.65985964 C29,9.65985964 27.3875233,10.0003381 26.8909985,11.333068 C26.8909985,11.328204 26.9499915,10.4964638 26.0896762,9.86414671 L26.0896762,9.86414671 Z M26.1634175,8.55573672 C26.1634175,8.55573672 26.1093406,9.44584462 27.087642,9.86901068 C27.087642,9.86901068 28.9115104,9.05186244 28.8377691,7.92341962 C28.8377691,7.92341962 27.7316494,8.02556315 27.087642,9.75227522 C27.087642,9.75227522 26.8762502,8.88162322 26.1634175,8.55573672 Z M26.0110188,7.21814286 C26.0110188,7.21814286 26.1535854,8.02069918 27.0679776,8.37576953 C27.0679776,8.37576953 28.606713,7.38838207 28.4838108,6.28912313 C28.4838108,6.28912313 27.2400407,6.85334453 27.0630615,8.23957817 C27.0630615,8.23957817 26.8762502,7.68508472 26.0110188,7.21814286 L26.0110188,7.21814286 Z M25.740634,5.880549 C25.740634,5.880549 25.8340397,6.63932951 26.8025089,6.89225636 C26.8025089,6.89225636 28.0856077,6.30857903 28.0118664,4.81047391 C28.0118664,4.81047391 26.8959146,5.36983133 26.7877606,6.77065692 C26.7926767,6.77065692 26.3993897,5.9243248 25.740634,5.880549 Z M25.2981861,4.62564276 C25.2981861,4.62564276 25.9126971,4.67914652 26.3944737,5.3795593 C26.3944737,5.3795593 26.4878793,3.89604613 27.4219359,3.43883221 C27.4219359,3.43883221 27.7562299,4.55268311 26.4338023,5.54979852 C26.4288863,5.54979852 25.5931514,5.39415123 25.2981861,4.62564276 L25.2981861,4.62564276 Z M24.8459061,3.50206392 C24.8459061,3.50206392 25.2096966,4.22679658 25.9421936,4.25598046 C25.9421936,4.25598046 27.0384811,3.3075048 26.753348,2.21310984 C26.753348,2.21310984 25.9225292,2.81137909 25.9126971,4.10033317 C25.907781,4.10033317 25.5489066,3.54097575 24.8459061,3.50206392 Z M24.280556,2.41253293 C24.280556,2.41253293 24.4919478,3.06430593 25.4309205,3.08376184 C25.4309205,3.08376184 26.3158162,2.01368675 25.9126971,1.04089124 C25.9126971,1.04089124 25.2441092,1.57592878 25.3571792,2.90379467 C25.3522631,2.89893069 24.8852348,2.38334905 24.280556,2.41253293 Z M23.6267164,1.4397374 C23.6267164,1.4397374 23.9708425,2.04287062 24.72792,1.96991097 C24.72792,1.96991097 25.5931514,0.856060072 25.0769622,0 C25.0769622,0 24.447703,0.603133226 24.6787591,1.8288556 C24.6787591,1.8288556 24.221563,1.38623364 23.6267164,1.4397374 Z M23.1351076,0.70527676 C23.1351076,0.70527676 23.4546533,1.29381806 24.280556,1.18681055 C24.280556,1.18681055 24.4083743,0.282110699 23.8331921,0 C23.8331921,0 23.6660451,0.466941864 24.0052551,0.938747703 C24.000339,0.938747703 23.7250382,0.656637004 23.1351076,0.70527676 L23.1351076,0.70527676 Z M22.8696389,0.0535037545 C22.8696389,0.0535037545 22.9482963,0.603133226 23.548059,0.55449347 C23.548059,0.55449347 23.5087303,0.0972795805 22.8696389,0.0535037545 L22.8696389,0.0535037545 Z"/>
    <g fill="#004788" transform="translate(5 2)">
      <path d="M7.95363233,14.4084215 L7.8118082,11.9074609 L3.11111111,9.09100045 L3.11111111,11.246703 C3.11111111,11.8565841 3.43912143,12.424228 3.98020403,12.7512471 L8.81633981,15.6726609 C9.53890352,16.109113 10.4610965,16.109113 11.1836602,15.6726609 L16.019796,12.7512471 C16.5608786,12.424228 16.8888889,11.8565841 16.8888889,11.246703 L16.8888889,9.08108108 L7.95363233,14.4084215 Z"/>
      <path d="M9.96563058,9.39775253 L8.95572389,8.76686363 L14.7336429,5.18712656 L15.7435496,5.81735965 L9.96563058,9.39775253 Z M8.07378137,8.09137967 L6.97328952,7.41097714 L11.3496641,4.72445284 L12.4498192,5.40452747 L8.07378137,8.09137967 Z M4.87097292,6.19904088 L10.6488919,2.61897591 L11.6591353,3.2495369 L5.88087961,6.82992978 L4.87097292,6.19904088 Z M19.8117999,5.91277996 L10.2980007,0.0836157326 C10.1158201,-0.0278719109 9.88447436,-0.0278719109 9.70263054,0.0836157326 L0.18815784,5.91343577 C-0.0627192801,6.06689523 -0.0627192801,6.42332778 0.18815784,6.57711515 L8.51694149,11.6802981 L8.61257787,13.4054054 L19.8111264,6.57711515 C20.062677,6.42398359 20.0630137,6.06689523 19.8117999,5.91277996 L19.8117999,5.91277996 Z"/>
    </g>
  </g>
</svg>
