<?xml version="1.0" encoding="UTF-8"?>
<svg width="41px" height="28px" viewBox="0 0 41 28" version="1.1" xmlns="http://www.w3.org/2000/svg" xmlns:xlink="http://www.w3.org/1999/xlink">
    <title>youtube</title>
    <g id="Bases" stroke="none" stroke-width="1" fill="none" fill-rule="evenodd">
        <g id="icon" transform="translate(-23.000000, -562.000000)" fill-rule="nonzero">
            <g id="youtube" transform="translate(23.500000, 562.000000)">
                <path d="M38.945033,4.34511435 C38.4823411,2.63604776 37.146643,1.30099815 35.4367464,0.838530839 C32.36064,0 19.9799475,0 19.9799475,0 C19.9799475,0 7.59925495,0.0254100254 4.52314859,0.863940864 C2.81325195,1.32640818 1.47755393,2.66145779 1.014862,4.37052437 C0.0844033804,9.83367983 -0.276594226,18.1580042 1.04028436,23.4026334 C1.50297629,25.1117 2.83867431,26.4467496 4.54857096,26.9092169 C7.62467732,27.7477477 20.0053699,27.7477477 20.0053699,27.7477477 C20.0053699,27.7477477 32.3860624,27.7477477 35.4621688,26.9092169 C37.1720654,26.4467496 38.5077634,25.1117 38.9704553,23.4026334 C39.9517587,17.9318549 40.2542849,9.61261261 38.945033,4.34511435 Z" id="Path" fill="#FF0000"></path>
                <polygon id="Path" fill="#FFFFFF" points="16.036036 19.8198198 26.4864865 13.8738739 16.036036 7.92792793"></polygon>
            </g>
        </g>
    </g>
</svg>