<?xml version="1.0" encoding="UTF-8"?>
<svg width="50px" height="21px" viewBox="0 0 50 21" version="1.1" xmlns="http://www.w3.org/2000/svg" xmlns:xlink="http://www.w3.org/1999/xlink">
    <title>zalo</title>
    <g id="Bases" stroke="none" stroke-width="1" fill="none" fill-rule="evenodd">
        <g id="icon" transform="translate(-95.000000, -527.000000)" fill="#0180C7" fill-rule="nonzero">
            <g id="zalo" transform="translate(95.000000, 527.000000)">
                <path d="M5.63509091,15.6576865 C8.10928209,15.6576865 10.4360049,15.6413011 12.7463424,15.6576865 C14.0407868,15.6740718 14.7453578,16.2147891 14.8764408,17.2470676 C15.0239091,18.5415119 14.270182,19.4099367 12.86104,19.426322 C10.2066097,19.4590928 7.56856482,19.4427074 4.91413454,19.4427074 C4.14402206,19.4427074 3.39029494,19.4754782 2.62018246,19.426322 C1.66983088,19.3771659 0.735864671,19.1805415 0.277074254,18.1974191 C-0.181716164,17.2142968 0.145991277,16.3294867 0.768635415,15.5266035 C3.29198271,12.3150706 5.83171538,9.08715228 8.37144805,5.87561935 C8.5189164,5.67899489 8.66638474,5.48237043 8.81385309,5.30213133 C8.64999937,5.02358001 8.42060416,5.15466298 8.2239797,5.13827761 C6.45435952,5.12189224 4.66835396,5.13827761 2.89873378,5.12189224 C2.48909948,5.12189224 2.07946518,5.07273612 1.68621625,4.99080926 C0.752250043,4.77779943 0.178762022,3.84383322 0.391771858,2.92625239 C0.539240207,2.30360825 1.03080137,1.79566171 1.65344551,1.64819337 C2.04669444,1.54988113 2.45632874,1.50072502 2.86596304,1.50072502 C5.78255926,1.48433964 8.71554086,1.48433964 11.6321371,1.50072502 C12.156469,1.48433964 12.6644155,1.54988113 13.1723621,1.68096411 C14.2865674,2.05782767 14.7617431,3.09010611 14.3193381,4.17154066 C13.9260892,5.10550687 13.303445,5.9083901 12.6808009,6.71127333 C10.5343172,9.44763046 8.38783342,12.1676022 6.24134968,14.8711886 C6.06111059,15.0841984 5.89725687,15.2972083 5.63509091,15.6576865 L5.63509091,15.6576865 Z" id="Path"></path>
                <path d="M24.6421225,7.03898077 C25.0353714,6.53103424 25.4450057,6.05585845 26.116806,5.92477547 C27.4112504,5.66260952 28.6237679,6.49826349 28.6401533,7.80909326 C28.6893094,11.0861677 28.672924,14.3632421 28.6401533,17.6403165 C28.6401533,18.4923558 28.0830506,19.2460829 27.2801674,19.4918635 C26.4608988,19.8031856 25.5269326,19.557405 24.9862153,18.852834 C24.707664,18.5087412 24.5929664,18.4431997 24.1997174,18.7545218 C22.7086486,19.9670393 21.0209553,20.1800492 19.202179,19.5901758 C16.2855827,18.6398242 15.0894506,16.3622575 14.7617431,13.5931296 C14.4176503,10.5946065 15.417158,8.03848847 18.104359,6.46549275 C20.3327696,5.13827761 22.593951,5.25297522 24.6421225,7.03898077 L24.6421225,7.03898077 Z M18.8417008,13.0196416 C18.8744715,13.7405979 19.1038667,14.4287836 19.5298864,15.0022716 C20.4146965,16.1820184 22.1023898,16.427799 23.298522,15.5429889 C23.4951465,15.3955205 23.6753855,15.2152814 23.8392393,15.0022716 C24.7568201,13.7569833 24.7568201,11.7088118 23.8392393,10.4635235 C23.3804488,9.82449402 22.6594925,9.44763046 21.88938,9.43124509 C20.0869891,9.31654749 18.8253154,10.7093041 18.8417008,13.0196416 L18.8417008,13.0196416 Z M35.9971853,13.1179538 C35.8661023,8.90691318 38.6352302,5.76092175 42.5677195,5.64622415 C46.7459894,5.51514117 49.7936686,8.31703979 49.9247516,12.4133828 C50.0558345,16.5588819 47.5161019,19.4918635 43.599998,19.8851125 C39.3234159,20.3111321 35.9316438,17.2142968 35.9971853,13.1179538 L35.9971853,13.1179538 Z M40.1099137,12.7247049 C40.077143,13.5439735 40.3229235,14.3468567 40.8144847,15.018657 C41.7156802,16.1984037 43.4033735,16.427799 44.5831203,15.5102181 C44.7633594,15.3791351 44.9108277,15.2152814 45.0582961,15.0514277 C46.0086476,13.8061394 46.0086476,11.7088118 45.0746814,10.4635235 C44.615891,9.84087939 43.8949347,9.44763046 43.1248222,9.43124509 C41.355202,9.33293286 40.1099137,10.6765334 40.1099137,12.7247049 L40.1099137,12.7247049 Z M34.5552726,9.85726476 C34.5552726,12.3969974 34.571658,14.9367301 34.5552726,17.4764628 C34.571658,18.6398242 33.6540771,19.6065611 32.4907157,19.6393319 C32.2940912,19.6393319 32.0810814,19.6229465 31.8844569,19.5737904 C31.0651883,19.3607806 30.4425442,18.4923558 30.4425442,17.4600774 L30.4425442,4.43370661 C30.4425442,3.66359413 30.4261588,2.90986701 30.4425442,2.13975453 C30.4589296,0.878080879 31.2618128,0.0588122763 32.4743303,0.0588122763 C33.7196186,0.0424269043 34.5552726,0.861695507 34.5552726,2.17252527 C34.571658,4.72864331 34.5552726,7.30114672 34.5552726,9.85726476 L34.5552726,9.85726476 Z" id="Shape"></path>
            </g>
        </g>
    </g>
</svg>